<svg id="svg" class="path" style="background-color: rgb(255, 162, 112);"><path fill="#fc986e" stroke="#fc986e" d="M -200 1096 L -200 0 C -173.75 0, -100.25 -20, -74 -20 C -47.75 -20, 25.750000000000004 20, 52 20 C 78.25 20, 151.75 -20, 178 -20 C 204.25 -20, 277.75 20, 304 20 C 330.25 20, 403.75 -20, 430 -20 C 456.25 -20, 529.75 20, 556 20 C 582.25 20, 655.75 -20, 682 -20 C 708.25 -20, 781.75 20, 808 20 C 834.25 20, 907.75 -20, 934 -20 C 960.25 -20, 1033.75 20, 1060 20 C 1086.25 20, 1159.75 -20, 1186 -20 C 1212.25 -20, 1285.75 20, 1312 20 C 1338.25 20, 1411.75 -20, 1438 -20 C 1464.25 -20, 1537.75 20, 1564 20 L 1669 0 L 1669 1096 Z"></path><path fill="#f88d6d" stroke="#f88d6d" d="M -200 1096 L -190 44 C -163.75 44, -90.25 24, -64 24 C -37.75 24, 35.75 64, 62 64 C 88.25 64, 161.75 24, 188 24 C 214.25 24, 287.75 64, 314 64 C 340.25 64, 413.75 24, 440 24 C 466.25 24, 539.75 64, 566 64 C 592.25 64, 665.75 24, 692 24 C 718.25 24, 791.75 64, 818 64 C 844.25 64, 917.75 24, 944 24 C 970.25 24, 1043.75 64, 1070 64 C 1096.25 64, 1169.75 24, 1196 24 C 1222.25 24, 1295.75 64, 1322 64 C 1348.25 64, 1421.75 24, 1448 24 C 1474.25 24, 1547.75 64, 1574 64 L 1669 44 L 1669 1096 Z"></path><path fill="#f4836d" stroke="#f4836d" d="M -200 1096 L -180 89 C -153.75 89, -80.25 69, -54 69 C -27.750000000000004 69, 45.75 109, 72 109 C 98.25 109, 171.75 69, 198 69 C 224.25 69, 297.75 109, 324 109 C 350.25 109, 423.75 69, 450 69 C 476.25 69, 549.75 109, 576 109 C 602.25 109, 675.75 69, 702 69 C 728.25 69, 801.75 109, 828 109 C 854.25 109, 927.75 69, 954 69 C 980.25 69, 1053.75 109, 1080 109 C 1106.25 109, 1179.75 69, 1206 69 C 1232.25 69, 1305.75 109, 1332 109 C 1358.25 109, 1431.75 69, 1458 69 C 1484.25 69, 1557.75 109, 1584 109 L 1669 89 L 1669 1096 Z"></path><path fill="#ef796d" stroke="#ef796d" d="M -200 1096 L -170 134 C -143.75 134, -70.25 114, -44 114 C -17.750000000000004 114, 55.75 154, 82 154 C 108.25 154, 181.75 114, 208 114 C 234.25 114, 307.75 154, 334 154 C 360.25 154, 433.75 114, 460 114 C 486.25 114, 559.75 154, 586 154 C 612.25 154, 685.75 114, 712 114 C 738.25 114, 811.75 154, 838 154 C 864.25 154, 937.75 114, 964 114 C 990.25 114, 1063.75 154, 1090 154 C 1116.25 154, 1189.75 114, 1216 114 C 1242.25 114, 1315.75 154, 1342 154 C 1368.25 154, 1441.75 114, 1468 114 C 1494.25 114, 1567.75 154, 1594 154 L 1669 134 L 1669 1096 Z"></path><path fill="#ea6f6e" stroke="#ea6f6e" d="M -200 1096 L -160 179 C -133.75 179, -60.25 159, -34 159 C -7.7500000000000036 159, 65.75 199, 92 199 C 118.25 199, 191.75 159, 218 159 C 244.25 159, 317.75 199, 344 199 C 370.25 199, 443.75 159, 470 159 C 496.25 159, 569.75 199, 596 199 C 622.25 199, 695.75 159, 722 159 C 748.25 159, 821.75 199, 848 199 C 874.25 199, 947.75 159, 974 159 C 1000.25 159, 1073.75 199, 1100 199 C 1126.25 199, 1199.75 159, 1226 159 C 1252.25 159, 1325.75 199, 1352 199 C 1378.25 199, 1451.75 159, 1478 159 L 1669 179 L 1669 1096 Z"></path><path fill="#e4656f" stroke="#e4656f" d="M -200 1096 L -150 224 C -123.75 224, -50.25 204, -24 204 C 2.2499999999999964 204, 75.75 244, 102 244 C 128.25 244, 201.75 204, 228 204 C 254.25 204, 327.75 244, 354 244 C 380.25 244, 453.75 204, 480 204 C 506.25 204, 579.75 244, 606 244 C 632.25 244, 705.75 204, 732 204 C 758.25 204, 831.75 244, 858 244 C 884.25 244, 957.75 204, 984 204 C 1010.25 204, 1083.75 244, 1110 244 C 1136.25 244, 1209.75 204, 1236 204 C 1262.25 204, 1335.75 244, 1362 244 C 1388.25 244, 1461.75 204, 1488 204 L 1669 224 L 1669 1096 Z"></path><path fill="#dd5c71" stroke="#dd5c71" d="M -200 1096 L -140 268 C -113.75 268, -40.25 248, -14 248 C 12.249999999999996 248, 85.75 288, 112 288 C 138.25 288, 211.75 248, 238 248 C 264.25 248, 337.75 288, 364 288 C 390.25 288, 463.75 248, 490 248 C 516.25 248, 589.75 288, 616 288 C 642.25 288, 715.75 248, 742 248 C 768.25 248, 841.75 288, 868 288 C 894.25 288, 967.75 248, 994 248 C 1020.25 248, 1093.75 288, 1120 288 C 1146.25 288, 1219.75 248, 1246 248 C 1272.25 248, 1345.75 288, 1372 288 C 1398.25 288, 1471.75 248, 1498 248 L 1669 268 L 1669 1096 Z"></path><path fill="#d65372" stroke="#d65372" d="M -200 1096 L -130 313 C -103.75 313, -30.249999999999996 293, -4 293 C 22.249999999999996 293, 95.75 333, 122 333 C 148.25 333, 221.75 293, 248 293 C 274.25 293, 347.75 333, 374 333 C 400.25 333, 473.75 293, 500 293 C 526.25 293, 599.75 333, 626 333 C 652.25 333, 725.75 293, 752 293 C 778.25 293, 851.75 333, 878 333 C 904.25 333, 977.75 293, 1004 293 C 1030.25 293, 1103.75 333, 1130 333 C 1156.25 333, 1229.75 293, 1256 293 C 1282.25 293, 1355.75 333, 1382 333 C 1408.25 333, 1481.75 293, 1508 293 L 1669 313 L 1669 1096 Z"></path><path fill="#cd4a74" stroke="#cd4a74" d="M -200 1096 L -120 358 C -93.75 358, -20.249999999999996 338, 6 338 C 32.25 338, 105.75 378, 132 378 C 158.25 378, 231.75 338, 258 338 C 284.25 338, 357.75 378, 384 378 C 410.25 378, 483.75 338, 510 338 C 536.25 338, 609.75 378, 636 378 C 662.25 378, 735.75 338, 762 338 C 788.25 338, 861.75 378, 888 378 C 914.25 378, 987.75 338, 1014 338 C 1040.25 338, 1113.75 378, 1140 378 C 1166.25 378, 1239.75 338, 1266 338 C 1292.25 338, 1365.75 378, 1392 378 C 1418.25 378, 1491.75 338, 1518 338 L 1669 358 L 1669 1096 Z"></path><path fill="#c44276" stroke="#c44276" d="M -200 1096 L -110 403 C -83.75 403, -10.249999999999996 383, 16 383 C 42.25 383, 115.75 423, 142 423 C 168.25 423, 241.75 383, 268 383 C 294.25 383, 367.75 423, 394 423 C 420.25 423, 493.75 383, 520 383 C 546.25 383, 619.75 423, 646 423 C 672.25 423, 745.75 383, 772 383 C 798.25 383, 871.75 423, 898 423 C 924.25 423, 997.75 383, 1024 383 C 1050.25 383, 1123.75 423, 1150 423 C 1176.25 423, 1249.75 383, 1276 383 C 1302.25 383, 1375.75 423, 1402 423 C 1428.25 423, 1501.75 383, 1528 383 L 1669 403 L 1669 1096 Z"></path><path fill="#ba3b78" stroke="#ba3b78" d="M -200 1096 L -100 448 C -73.75 448, -0.24999999999999645 428, 26 428 C 52.25 428, 125.75 468, 152 468 C 178.25 468, 251.75 428, 278 428 C 304.25 428, 377.75 468, 404 468 C 430.25 468, 503.75 428, 530 428 C 556.25 428, 629.75 468, 656 468 C 682.25 468, 755.75 428, 782 428 C 808.25 428, 881.75 468, 908 468 C 934.25 468, 1007.75 428, 1034 428 C 1060.25 428, 1133.75 468, 1160 468 C 1186.25 468, 1259.75 428, 1286 428 C 1312.25 428, 1385.75 468, 1412 468 C 1438.25 468, 1511.75 428, 1538 428 L 1669 448 L 1669 1096 Z"></path><path fill="#b0347a" stroke="#b0347a" d="M -200 1096 L -90 492 C -63.75 492, 9.750000000000004 472, 36 472 C 62.25 472, 135.75 512, 162 512 C 188.25 512, 261.75 472, 288 472 C 314.25 472, 387.75 512, 414 512 C 440.25 512, 513.75 472, 540 472 C 566.25 472, 639.75 512, 666 512 C 692.25 512, 765.75 472, 792 472 C 818.25 472, 891.75 512, 918 512 C 944.25 512, 1017.75 472, 1044 472 C 1070.25 472, 1143.75 512, 1170 512 C 1196.25 512, 1269.75 472, 1296 472 C 1322.25 472, 1395.75 512, 1422 512 C 1448.25 512, 1521.75 472, 1548 472 L 1669 492 L 1669 1096 Z"></path><path fill="#a42e7c" stroke="#a42e7c" d="M -200 1096 L -80 537 C -53.75 537, 19.750000000000004 517, 46 517 C 72.25 517, 145.75 557, 172 557 C 198.25 557, 271.75 517, 298 517 C 324.25 517, 397.75 557, 424 557 C 450.25 557, 523.75 517, 550 517 C 576.25 517, 649.75 557, 676 557 C 702.25 557, 775.75 517, 802 517 C 828.25 517, 901.75 557, 928 557 C 954.25 557, 1027.75 517, 1054 517 C 1080.25 517, 1153.75 557, 1180 557 C 1206.25 557, 1279.75 517, 1306 517 C 1332.25 517, 1405.75 557, 1432 557 C 1458.25 557, 1531.75 517, 1558 517 L 1669 537 L 1669 1096 Z"></path><path fill="#982a7e" stroke="#982a7e" d="M -200 1096 L -70 582 C -43.75 582, 29.750000000000004 562, 56 562 C 82.25 562, 155.75 602, 182 602 C 208.25 602, 281.75 562, 308 562 C 334.25 562, 407.75 602, 434 602 C 460.25 602, 533.75 562, 560 562 C 586.25 562, 659.75 602, 686 602 C 712.25 602, 785.75 562, 812 562 C 838.25 562, 911.75 602, 938 602 C 964.25 602, 1037.75 562, 1064 562 C 1090.25 562, 1163.75 602, 1190 602 C 1216.25 602, 1289.75 562, 1316 562 C 1342.25 562, 1415.75 602, 1442 602 C 1468.25 602, 1541.75 562, 1568 562 L 1669 582 L 1669 1096 Z"></path><path fill="#8b2680" stroke="#8b2680" d="M -200 1096 L -60 627 C -33.75 627, 39.75 607, 66 607 C 92.25 607, 165.75 647, 192 647 C 218.25 647, 291.75 607, 318 607 C 344.25 607, 417.75 647, 444 647 C 470.25 647, 543.75 607, 570 607 C 596.25 607, 669.75 647, 696 647 C 722.25 647, 795.75 607, 822 607 C 848.25 607, 921.75 647, 948 647 C 974.25 647, 1047.75 607, 1074 607 C 1100.25 607, 1173.75 647, 1200 647 C 1226.25 647, 1299.75 607, 1326 607 C 1352.25 607, 1425.75 647, 1452 647 C 1478.25 647, 1551.75 607, 1578 607 L 1669 627 L 1669 1096 Z"></path><path fill="#7c2481" stroke="#7c2481" d="M -200 1096 L -50 672 C -23.750000000000004 672, 49.75 652, 76 652 C 102.25 652, 175.75 692, 202 692 C 228.25 692, 301.75 652, 328 652 C 354.25 652, 427.75 692, 454 692 C 480.25 692, 553.75 652, 580 652 C 606.25 652, 679.75 692, 706 692 C 732.25 692, 805.75 652, 832 652 C 858.25 652, 931.75 692, 958 692 C 984.25 692, 1057.75 652, 1084 652 C 1110.25 652, 1183.75 692, 1210 692 C 1236.25 692, 1309.75 652, 1336 652 C 1362.25 652, 1435.75 692, 1462 692 C 1488.25 692, 1561.75 652, 1588 652 L 1669 672 L 1669 1096 Z"></path><path fill="#6d2382" stroke="#6d2382" d="M -200 1096 L -40 716 C -13.750000000000004 716, 59.75 696, 86 696 C 112.25 696, 185.75 736, 212 736 C 238.25 736, 311.75 696, 338 696 C 364.25 696, 437.75 736, 464 736 C 490.25 736, 563.75 696, 590 696 C 616.25 696, 689.75 736, 716 736 C 742.25 736, 815.75 696, 842 696 C 868.25 696, 941.75 736, 968 736 C 994.25 736, 1067.75 696, 1094 696 C 1120.25 696, 1193.75 736, 1220 736 C 1246.25 736, 1319.75 696, 1346 696 C 1372.25 696, 1445.75 736, 1472 736 L 1669 716 L 1669 1096 Z"></path><path fill="#5c2282" stroke="#5c2282" d="M -200 1096 L -30 761 C -3.7500000000000036 761, 69.75 741, 96 741 C 122.25 741, 195.75 781, 222 781 C 248.25 781, 321.75 741, 348 741 C 374.25 741, 447.75 781, 474 781 C 500.25 781, 573.75 741, 600 741 C 626.25 741, 699.75 781, 726 781 C 752.25 781, 825.75 741, 852 741 C 878.25 741, 951.75 781, 978 781 C 1004.25 781, 1077.75 741, 1104 741 C 1130.25 741, 1203.75 781, 1230 781 C 1256.25 781, 1329.75 741, 1356 741 C 1382.25 741, 1455.75 781, 1482 781 L 1669 761 L 1669 1096 Z"></path><path fill="#482282" stroke="#482282" d="M -200 1096 L -20 806 C 6.2499999999999964 806, 79.75 786, 106 786 C 132.25 786, 205.75 826, 232 826 C 258.25 826, 331.75 786, 358 786 C 384.25 786, 457.75 826, 484 826 C 510.25 826, 583.75 786, 610 786 C 636.25 786, 709.75 826, 736 826 C 762.25 826, 835.75 786, 862 786 C 888.25 786, 961.75 826, 988 826 C 1014.25 826, 1087.75 786, 1114 786 C 1140.25 786, 1213.75 826, 1240 826 C 1266.25 826, 1339.75 786, 1366 786 C 1392.25 786, 1465.75 826, 1492 826 L 1669 806 L 1669 1096 Z"></path><path fill="#302281" stroke="#302281" d="M -200 1096 L -10 851 C 16.249999999999996 851, 89.75 831, 116 831 C 142.25 831, 215.75 871, 242 871 C 268.25 871, 341.75 831, 368 831 C 394.25 831, 467.75 871, 494 871 C 520.25 871, 593.75 831, 620 831 C 646.25 831, 719.75 871, 746 871 C 772.25 871, 845.75 831, 872 831 C 898.25 831, 971.75 871, 998 871 C 1024.25 871, 1097.75 831, 1124 831 C 1150.25 831, 1223.75 871, 1250 871 C 1276.25 871, 1349.75 831, 1376 831 C 1402.25 831, 1475.75 871, 1502 871 L 1669 851 L 1669 1096 Z"></path><path fill="#002280" stroke="#002280" d="M -200 1096 L 0 896 C 26.249999999999996 896, 99.75 876, 126 876 C 152.25 876, 225.75 916, 252 916 C 278.25 916, 351.75 876, 378 876 C 404.25 876, 477.75 916, 504 916 C 530.25 916, 603.75 876, 630 876 C 656.25 876, 729.75 916, 756 916 C 782.25 916, 855.75 876, 882 876 C 908.25 876, 981.75 916, 1008 916 C 1034.25 916, 1107.75 876, 1134 876 C 1160.25 876, 1233.75 916, 1260 916 C 1286.25 916, 1359.75 876, 1386 876 C 1412.25 876, 1485.75 916, 1512 916 L 1669 896 L 1669 1096 Z"></path></svg>