
<svg id="visual" viewBox="0 0 900 600" width="900" height="600" xmlns="http://www.w3.org/2000/svg" xmlns:xlink="http://www.w3.org/1999/xlink" version="1.1"><path d="M0 61L11.5 67C23 73 46 85 69 82C92 79 115 61 138.2 55C161.3 49 184.7 55 207.8 61C231 67 254 73 277 73C300 73 323 67 346 67C369 67 392 73 415.2 70C438.3 67 461.7 55 484.8 52C508 49 531 55 554 62C577 69 600 77 623 74C646 71 669 57 692.2 52C715.3 47 738.7 51 761.8 59C785 67 808 79 831 80C854 81 877 71 888.5 66L900 61L900 0L888.5 0C877 0 854 0 831 0C808 0 785 0 761.8 0C738.7 0 715.3 0 692.2 0C669 0 646 0 623 0C600 0 577 0 554 0C531 0 508 0 484.8 0C461.7 0 438.3 0 415.2 0C392 0 369 0 346 0C323 0 300 0 277 0C254 0 231 0 207.8 0C184.7 0 161.3 0 138.2 0C115 0 92 0 69 0C46 0 23 0 11.5 0L0 0Z" fill="#0066ff"></path><path d="M0 301L11.5 288C23 275 46 249 69 232C92 215 115 207 138.2 215C161.3 223 184.7 247 207.8 247C231 247 254 223 277 214C300 205 323 211 346 233C369 255 392 293 415.2 302C438.3 311 461.7 291 484.8 265C508 239 531 207 554 198C577 189 600 203 623 221C646 239 669 261 692.2 265C715.3 269 738.7 255 761.8 257C785 259 808 277 831 282C854 287 877 279 888.5 275L900 271L900 59L888.5 64C877 69 854 79 831 78C808 77 785 65 761.8 57C738.7 49 715.3 45 692.2 50C669 55 646 69 623 72C600 75 577 67 554 60C531 53 508 47 484.8 50C461.7 53 438.3 65 415.2 68C392 71 369 65 346 65C323 65 300 71 277 71C254 71 231 65 207.8 59C184.7 53 161.3 47 138.2 53C115 59 92 77 69 80C46 83 23 71 11.5 65L0 59Z" fill="#7e4bd4"></path><path d="M0 391L11.5 385C23 379 46 367 69 354C92 341 115 327 138.2 331C161.3 335 184.7 357 207.8 353C231 349 254 319 277 316C300 313 323 337 346 355C369 373 392 385 415.2 394C438.3 403 461.7 409 484.8 396C508 383 531 351 554 334C577 317 600 315 623 327C646 339 669 365 692.2 375C715.3 385 738.7 379 761.8 382C785 385 808 397 831 395C854 393 877 377 888.5 369L900 361L900 269L888.5 273C877 277 854 285 831 280C808 275 785 257 761.8 255C738.7 253 715.3 267 692.2 263C669 259 646 237 623 219C600 201 577 187 554 196C531 205 508 237 484.8 263C461.7 289 438.3 309 415.2 300C392 291 369 253 346 231C323 209 300 203 277 212C254 221 231 245 207.8 245C184.7 245 161.3 221 138.2 213C115 205 92 213 69 230C46 247 23 273 11.5 286L0 299Z" fill="#9b31a8"></path><path d="M0 499L11.5 490C23 481 46 463 69 443C92 423 115 401 138.2 406C161.3 411 184.7 443 207.8 440C231 437 254 399 277 397C300 395 323 429 346 446C369 463 392 463 415.2 468C438.3 473 461.7 483 484.8 470C508 457 531 421 554 407C577 393 600 401 623 417C646 433 669 457 692.2 469C715.3 481 738.7 481 761.8 482C785 483 808 485 831 475C854 465 877 443 888.5 432L900 421L900 359L888.5 367C877 375 854 391 831 393C808 395 785 383 761.8 380C738.7 377 715.3 383 692.2 373C669 363 646 337 623 325C600 313 577 315 554 332C531 349 508 381 484.8 394C461.7 407 438.3 401 415.2 392C392 383 369 371 346 353C323 335 300 311 277 314C254 317 231 347 207.8 351C184.7 355 161.3 333 138.2 329C115 325 92 339 69 352C46 365 23 377 11.5 383L0 389Z" fill="#a21d7f"></path><path d="M0 601L11.5 601C23 601 46 601 69 601C92 601 115 601 138.2 601C161.3 601 184.7 601 207.8 601C231 601 254 601 277 601C300 601 323 601 346 601C369 601 392 601 415.2 601C438.3 601 461.7 601 484.8 601C508 601 531 601 554 601C577 601 600 601 623 601C646 601 669 601 692.2 601C715.3 601 738.7 601 761.8 601C785 601 808 601 831 601C854 601 877 601 888.5 601L900 601L900 419L888.5 430C877 441 854 463 831 473C808 483 785 481 761.8 480C738.7 479 715.3 479 692.2 467C669 455 646 431 623 415C600 399 577 391 554 405C531 419 508 455 484.8 468C461.7 481 438.3 471 415.2 466C392 461 369 461 346 444C323 427 300 393 277 395C254 397 231 435 207.8 438C184.7 441 161.3 409 138.2 404C115 399 92 421 69 441C46 461 23 479 11.5 488L0 497Z" fill="#9b175b"></path></svg>