<?xml version="1.0" encoding="utf-8"?><svg xmlns="http://www.w3.org/2000/svg" xmlns:xlink="http://www.w3.org/1999/xlink" width="1323" height="886" preserveAspectRatio="xMidYMid" viewBox="0 0 1323 886" style="z-index:1;margin-right:-2px;display:block;background-repeat-y:initial;background-repeat-x:initial;background-color:rgb(255, 255, 255);animation-play-state:paused" ><g transform="translate(661.5,443) scale(1,1) translate(-661.5,-443)" style="transform:matrix(1, 0, 0, 1, 0, 0);animation-play-state:paused" ><linearGradient id="lg-0.50002459251557" x1="0" x2="1" y1="0" y2="0" style="animation-play-state:paused" ><stop stop-color="#ff00ff" offset="0" style="animation-play-state:paused" ></stop>

  
<stop stop-color="#00ffff" offset="1" style="animation-play-state:paused" ></stop></linearGradient>
<path d="M 0 0 L 0 739.877 Q 132.3 692.462 264.6 646.894 T 529.2 545.383 T 793.8 522.996 T 1058.4 398.167 T 1323 307.119 L 1323 0 Z" fill="url(#lg-0.50002459251557)" opacity="0.4" style="opacity:0.4;animation-play-state:paused" ></path>
<path d="M 0 0 L 0 750.74 Q 132.3 723.238 264.6 691.414 T 529.2 574.259 T 793.8 562.258 T 1058.4 465.515 T 1323 399.694 L 1323 0 Z" fill="url(#lg-0.50002459251557)" opacity="0.4" style="opacity:0.4;animation-play-state:paused" ></path>
<path d="M 0 0 L 0 736.858 Q 132.3 745.19 264.6 717.302 T 529.2 646.589 T 793.8 580.257 T 1058.4 525.274 T 1323 396.3 L 1323 0 Z" fill="url(#lg-0.50002459251557)" opacity="0.4" style="opacity:0.4;animation-play-state:paused" ></path>
<path d="M 0 0 L 0 831.875 Q 132.3 752.167 264.6 730.211 T 529.2 665.812 T 793.8 516.783 T 1058.4 507.186 T 1323 345.628 L 1323 0 Z" fill="url(#lg-0.50002459251557)" opacity="0.4" style="opacity:0.4;animation-play-state:paused" ></path>
<path d="M 0 0 L 0 794.297 Q 132.3 751.02 264.6 726.753 T 529.2 595.634 T 793.8 583.077 T 1058.4 458.3 T 1323 443.371 L 1323 0 Z" fill="url(#lg-0.50002459251557)" opacity="0.4" style="opacity:0.4;animation-play-state:paused" ></path></g></svg>