<?xml version="1.0" standalone="no"?>
<!DOCTYPE svg PUBLIC "-//W3C//DTD SVG 20010904//EN"
 "http://www.w3.org/TR/2001/REC-SVG-20010904/DTD/svg10.dtd">
<svg version="1.0" xmlns="http://www.w3.org/2000/svg"
 width="1350.000000pt" height="2025.000000pt" viewBox="0 0 1350.000000 2025.000000"
 preserveAspectRatio="xMidYMid meet">
<metadata>
Created by potrace 1.10, written by Peter Selinger 2001-2011
</metadata>
<g transform="translate(0.000000,2025.000000) scale(0.100000,-0.100000)"
fill="#000000" stroke="none">
<path d="M0 17423 l1 -2828 43 -37 c54 -46 111 -68 201 -78 84 -9 175 -34 187
-52 5 -7 16 -30 24 -50 18 -42 43 -55 74 -38 12 6 51 15 88 20 37 5 84 12 105
16 21 3 58 1 81 -6 33 -9 61 -9 115 -1 65 10 76 9 116 -9 53 -24 90 -26 107
-4 7 8 26 27 42 42 15 15 32 37 37 50 5 12 17 25 26 28 10 3 25 8 33 11 8 3
32 5 53 4 36 -2 37 -1 37 31 0 26 -10 45 -41 78 -22 25 -48 56 -57 70 -8 14
-34 54 -58 90 -77 119 -81 254 -11 385 42 79 116 138 167 132 21 -2 48 3 70
15 19 10 40 18 47 18 6 0 25 12 42 26 29 24 36 25 91 19 43 -5 86 -2 148 11
l87 17 40 -25 c42 -27 54 -38 107 -101 32 -39 32 -39 87 -32 31 4 61 11 68 17
9 7 21 -3 43 -39 35 -54 36 -97 2 -143 -11 -14 -23 -41 -27 -59 -4 -18 -13
-44 -21 -59 -8 -15 -14 -35 -14 -44 0 -9 -4 -19 -9 -22 -5 -4 -13 -25 -17 -49
-4 -23 -9 -49 -11 -57 -1 -8 -6 -37 -10 -64 -8 -47 -10 -50 -48 -61 -22 -7
-78 -24 -125 -38 -47 -14 -106 -29 -131 -32 -36 -5 -49 -11 -57 -30 -7 -14
-16 -25 -22 -25 -18 0 -11 -46 10 -65 16 -15 29 -16 77 -10 32 4 83 8 113 10
30 2 65 7 77 10 16 5 24 1 33 -15 10 -18 17 -21 50 -15 36 6 39 5 42 -20 2
-16 14 -33 31 -43 28 -17 29 -17 52 13 13 16 28 26 32 21 4 -4 7 -45 5 -90
l-2 -82 51 -29 51 -30 -6 -80 c-3 -44 -6 -129 -6 -188 l0 -108 -30 -10 c-26
-10 -33 -21 -55 -92 -51 -163 -75 -192 -155 -188 -43 2 -127 -35 -133 -60 -3
-10 -18 -24 -33 -29 -32 -12 -67 -46 -78 -75 -16 -39 -33 -161 -28 -202 3 -34
-2 -52 -30 -100 -19 -32 -33 -63 -32 -68 2 -6 -13 -21 -34 -34 l-37 -23 -27
32 -26 32 -32 -63 c-19 -37 -55 -86 -86 -116 -42 -41 -54 -59 -54 -83 0 -35 3
-34 -45 -14 -32 13 -48 14 -99 4 -34 -6 -99 -10 -146 -9 -47 1 -104 -2 -128
-6 -42 -7 -174 18 -197 37 -5 4 -17 8 -27 8 -9 0 -32 13 -51 30 -40 34 -84 53
-106 45 -49 -19 -112 -24 -143 -11 -18 8 -69 17 -113 21 -44 4 -115 15 -157
25 -79 19 -124 14 -184 -18 -11 -6 -27 -13 -36 -16 -17 -5 -18 -319 -18 -6411
l0 -6405 2293 0 c1770 0 2296 3 2305 12 15 15 16 64 2 73 -11 7 -14 135 -4
135 3 0 27 -21 53 -47 25 -27 60 -55 77 -64 26 -14 33 -24 38 -63 l7 -46 4365
0 4364 0 0 2280 c0 2066 -1 2280 -16 2280 -27 0 -141 88 -154 119 -10 25 -8
34 12 71 63 115 110 180 136 186 l22 6 0 3180 c0 1904 -4 3177 -9 3174 -9 -6
-61 49 -61 64 0 5 -11 22 -24 37 -15 18 -24 41 -24 60 1 17 -9 46 -21 66 -11
19 -21 41 -21 49 0 8 -13 27 -30 43 -22 21 -30 38 -30 63 0 40 15 72 35 72 11
0 15 13 15 53 0 59 -29 117 -57 117 -34 0 -123 -28 -157 -49 -19 -12 -51 -22
-72 -24 -44 -2 -42 -14 -26 128 5 44 17 95 27 114 22 43 104 124 218 213 77
61 87 73 87 101 0 36 20 78 64 132 26 32 28 38 17 62 -11 23 -10 29 5 40 10 7
28 13 41 13 27 0 31 26 6 33 -17 4 -17 5 0 6 16 1 17 41 17 686 l0 685 -24 0
c-29 0 -175 52 -227 80 -20 11 -45 20 -55 20 -11 0 -32 7 -48 15 -16 9 -30 14
-31 13 -7 -9 -35 -142 -35 -165 0 -34 -41 -163 -69 -220 -50 -100 -175 -189
-272 -194 -53 -3 -64 3 -89 44 -16 25 -20 28 -25 14 -3 -9 -7 -24 -10 -34 -10
-29 -69 39 -84 97 -14 56 -10 70 23 70 26 0 56 28 56 52 0 9 -7 21 -16 29 -23
19 -54 84 -54 113 0 35 27 61 47 44 12 -10 18 -9 29 7 18 24 18 34 0 41 -26
10 -86 191 -86 258 0 49 6 59 45 77 25 12 29 20 27 44 -18 189 -8 294 39 387
11 21 19 45 19 55 0 11 -37 46 -90 88 -137 106 -168 162 -177 325 -5 86 17
188 48 216 10 9 19 21 19 26 0 15 62 88 75 88 7 0 26 14 43 30 18 17 37 30 43
30 5 0 36 12 67 27 31 15 80 32 107 38 49 12 50 12 47 46 -2 19 -3 58 -3 88 1
43 -2 52 -12 42 -6 -6 -17 -26 -23 -44 -6 -18 -19 -34 -30 -36 -10 -1 -26 -9
-34 -16 -8 -7 -40 -18 -70 -25 -30 -7 -66 -18 -80 -25 -75 -38 -166 -24 -299
46 -107 57 -111 60 -111 75 0 10 -12 14 -39 14 -35 0 -42 -5 -98 -73 -66 -80
-174 -171 -299 -253 -94 -62 -157 -82 -205 -65 -78 27 -212 4 -235 -40 -10
-20 -24 -29 -52 -34 -26 -4 -52 -19 -79 -46 -38 -37 -42 -38 -48 -19 -3 11
-15 25 -26 30 -10 6 -19 17 -19 25 0 8 -9 15 -20 15 -12 0 -24 10 -30 24 -5
13 -13 27 -19 30 -23 15 -101 145 -120 201 -11 33 -27 78 -35 100 -14 39 -11
101 5 120 12 12 11 52 -1 60 -20 12 -9 41 25 64 19 13 35 27 35 32 0 5 7 9 15
9 8 0 15 -5 15 -11 0 -6 15 -2 35 10 35 20 35 20 47 1 7 -11 19 -20 28 -20 8
0 33 -7 57 -16 55 -21 69 -15 85 38 10 33 35 66 114 144 107 106 167 144 285
179 30 8 90 27 134 40 44 14 106 28 138 31 51 6 57 9 57 30 0 28 69 69 100 59
13 -4 28 2 46 20 14 14 38 27 54 29 16 2 48 17 72 35 l43 32 8 -31 c9 -35 47
-44 47 -10 0 65 53 188 83 191 43 5 105 -6 126 -22 47 -37 127 -20 256 55 22
13 61 27 88 30 44 7 48 6 57 -19 6 -14 10 -62 10 -105 0 -43 3 -85 6 -94 11
-28 48 -17 97 29 49 47 55 49 81 39 19 -7 20 -27 4 -53 -17 -28 5 -51 51 -51
37 0 55 10 80 42 11 15 9 22 -13 49 -30 35 -36 75 -10 65 39 -15 64 -17 84 -6
16 9 25 9 36 -1 18 -15 18 -40 0 -33 -8 3 -23 -7 -35 -25 l-22 -30 22 -12 c16
-8 27 -8 45 2 20 10 27 10 42 -4 20 -18 72 -23 72 -8 0 5 9 13 20 16 18 6 20
15 20 115 l0 109 -27 3 c-25 3 -28 8 -36 58 -4 30 -19 90 -33 134 -19 57 -25
89 -20 120 13 93 25 146 40 175 9 16 16 52 16 79 0 56 26 141 46 149 12 4 14
207 14 1289 l0 1284 -2525 0 -2525 0 0 -24 c0 -25 23 -56 41 -56 5 0 15 -12
21 -27 l11 -28 10 28 c17 43 35 32 52 -30 9 -32 18 -64 21 -71 2 -7 12 -12 22
-10 10 2 35 -11 55 -29 20 -18 54 -35 74 -39 21 -4 51 -16 68 -28 34 -24 177
-85 216 -93 28 -5 71 33 236 210 68 73 133 116 175 117 10 0 27 -10 38 -22 23
-25 55 -27 176 -13 53 6 66 4 111 -18 47 -24 71 -47 116 -111 12 -18 30 -27
65 -32 26 -3 53 -11 60 -16 8 -7 17 -6 27 2 8 7 22 10 30 6 15 -5 14 -9 -2
-36 -10 -18 -23 -28 -31 -25 -11 4 -13 -1 -7 -22 27 -104 14 -157 -55 -235
-37 -43 -81 -120 -95 -168 -17 -59 -49 -111 -95 -154 -41 -38 -56 -46 -88 -46
-51 0 -57 -8 -27 -36 32 -30 31 -40 -5 -74 -16 -15 -30 -30 -30 -33 0 -2 14
-10 31 -17 21 -9 33 -10 41 -2 7 7 18 6 36 -3 15 -7 38 -18 53 -23 20 -8 28
-22 42 -73 18 -68 73 -224 87 -249 5 -8 23 -39 40 -67 37 -65 39 -97 5 -119
-24 -15 -27 -15 -44 0 -9 9 -30 16 -45 16 -20 0 -39 11 -61 36 l-34 36 -49
-12 c-28 -6 -58 -17 -67 -24 -15 -11 -15 -14 3 -36 l20 -25 -21 -23 -22 -23
45 -39 c63 -55 45 -70 -68 -55 -43 5 -80 18 -119 42 -67 40 -75 50 -114 133
-27 57 -31 76 -31 155 0 50 7 119 15 154 20 79 67 178 87 184 9 2 22 24 29 48
7 24 19 56 27 71 19 35 8 40 -56 28 -29 -5 -91 -8 -137 -5 -83 4 -86 4 -112
-24 -14 -15 -41 -55 -60 -89 -38 -68 -156 -195 -210 -227 -19 -11 -42 -33 -51
-50 -11 -20 -40 -41 -90 -66 -112 -56 -108 -45 -74 -259 14 -85 19 -98 47
-122 17 -16 39 -28 49 -28 27 0 109 -44 135 -72 11 -12 32 -43 45 -68 21 -40
23 -57 22 -167 -1 -71 3 -123 8 -123 5 0 48 40 96 89 67 69 99 95 140 111 30
11 57 18 60 16 4 -2 42 -11 86 -20 43 -9 114 -33 157 -53 68 -31 88 -46 140
-107 129 -152 159 -283 88 -387 -10 -14 -24 -50 -31 -80 -10 -38 -20 -55 -33
-58 -10 -2 -32 -16 -48 -32 -52 -52 -98 -46 -161 20 -52 54 -85 29 -46 -34 18
-28 19 -35 6 -35 -8 0 -18 5 -21 10 -3 6 -15 10 -25 10 -26 0 -92 31 -107 50
-6 8 -15 12 -18 8 -4 -4 5 -18 21 -31 18 -16 25 -29 21 -40 -15 -39 -78 -4
-189 105 -44 42 -87 80 -98 83 -26 8 -74 126 -67 163 3 16 1 34 -5 40 -9 9 -2
20 25 45 39 35 44 51 25 92 -13 28 -16 29 -53 15 -22 -8 -26 -15 -21 -35 7
-29 -26 -70 -50 -61 -8 3 -21 3 -29 -1 -14 -5 -14 -8 1 -24 16 -17 16 -19 -1
-25 -11 -5 -45 7 -90 29 -40 21 -78 37 -83 37 -29 0 -20 -26 19 -61 44 -38 44
-38 16 -39 -17 0 -35 9 -48 25 -12 13 -36 27 -53 31 -17 3 -48 20 -69 37 -30
23 -37 35 -33 52 4 17 -2 25 -32 39 -36 18 -37 17 -51 -3 -24 -37 -45 -32
-260 72 -60 29 -91 55 -91 77 0 19 -19 30 -54 30 -12 0 -32 11 -44 25 -12 14
-31 25 -41 25 -11 0 -32 10 -48 23 -58 46 -86 55 -188 61 -100 5 -264 41 -337
73 -42 19 -38 37 12 46 75 15 29 117 -53 117 -32 0 -38 3 -33 16 3 9 6 20 6
26 0 6 7 7 16 4 26 -10 64 4 64 24 0 26 -18 35 -92 48 -71 13 -111 6 -121 -22
-4 -10 -18 -16 -37 -16 -35 0 -110 -35 -110 -51 0 -6 5 -19 10 -30 12 -22 18
-20 -90 -24 -41 -2 -82 1 -92 6 -10 6 -26 4 -45 -6 -15 -8 -39 -15 -54 -15
-14 0 -29 -4 -35 -9 -5 -5 -55 -6 -111 -4 l-103 6 0 32 c0 30 -3 33 -36 39
-20 4 -37 14 -40 24 -3 9 -15 37 -27 62 -11 25 -26 59 -33 75 -71 179 -81 195
-124 195 -14 0 -59 -11 -99 -25 -78 -26 -174 -48 -206 -46 -11 1 -39 -1 -63
-5 -34 -4 -47 -12 -62 -36 -31 -51 -34 -94 -10 -128 19 -26 21 -44 21 -141 0
-97 -2 -114 -19 -133 -11 -11 -23 -37 -27 -56 -13 -69 -14 -70 -56 -70 -22 0
-93 18 -157 39 -136 46 -155 49 -367 58 -247 10 -248 10 -393 -42 -103 -38
-143 -57 -183 -91 -28 -24 -57 -44 -65 -44 -8 0 -45 -24 -82 -53 -103 -83
-117 -90 -159 -85 -21 3 -69 1 -106 -4 -58 -8 -72 -7 -86 6 -10 9 -23 16 -30
16 -7 0 -34 7 -61 16 -41 13 -55 25 -87 71 -42 61 -62 74 -142 93 -29 7 -76
21 -104 31 -29 11 -64 19 -79 19 -14 0 -33 7 -42 15 -22 23 -147 86 -157 79
-9 -5 -13 9 -10 34 1 7 -5 15 -13 18 -9 3 -28 46 -45 99 -16 50 -41 115 -55
143 -53 104 -27 171 91 237 40 22 103 61 141 88 39 26 73 47 77 47 4 0 20 10
37 21 16 12 50 32 76 46 44 24 53 25 154 19 103 -6 110 -7 173 -46 36 -22 81
-42 100 -45 19 -2 47 -11 64 -19 16 -9 36 -16 44 -16 17 0 87 -73 145 -152 71
-96 135 -128 178 -87 13 12 24 31 24 42 0 41 88 177 115 177 6 0 34 18 62 39
84 63 275 168 318 175 22 3 58 9 80 13 72 13 119 8 178 -21 32 -15 64 -25 72
-22 18 7 32 62 40 156 13 153 50 264 111 330 29 32 67 134 59 159 -4 14 -17
21 -43 23 -35 3 -37 5 -58 65 -22 65 -39 93 -57 93 -20 0 -127 123 -125 144 1
12 -1 49 -6 84 l-8 62 -447 0 -448 0 -17 -74 c-12 -48 -26 -82 -41 -96 -37
-35 -174 -118 -274 -166 -59 -29 -95 -53 -98 -65 -3 -10 -9 -19 -12 -19 -4 0
-17 -20 -30 -44 -21 -43 -23 -44 -51 -34 -43 14 -44 23 -8 52 l32 25 -23 25
c-28 30 -94 34 -130 7 -29 -22 -22 -35 30 -61 52 -27 52 -52 -1 -67 -28 -7
-54 -7 -84 0 -37 8 -49 7 -70 -6 -14 -10 -34 -17 -46 -17 -11 0 -43 -9 -71
-20 -37 -13 -65 -17 -95 -13 -24 3 -49 1 -56 -4 -7 -6 -36 -18 -65 -27 -28
-10 -57 -23 -63 -31 -6 -8 -26 -17 -43 -20 -18 -4 -39 -14 -48 -21 -33 -29
-109 -28 -197 1 -49 16 -92 25 -106 21 -14 -3 -36 -25 -54 -53 -16 -27 -48
-67 -72 -91 -40 -41 -42 -44 -35 -88 4 -29 2 -50 -5 -59 -19 -22 -29 -85 -19
-111 5 -14 17 -24 28 -24 23 0 32 -19 19 -43 -6 -12 -5 -23 3 -34 11 -12 10
-14 -5 -11 -13 2 -26 -11 -47 -47 -33 -59 -35 -80 -11 -90 16 -6 16 -7 -3 -21
-17 -12 -18 -17 -7 -34 16 -26 4 -50 -42 -85 -35 -27 -101 -35 -108 -13 -3 7
-18 13 -34 14 -16 1 -39 2 -51 3 -12 0 -24 10 -28 21 -4 11 -19 27 -34 34 -58
30 -118 99 -136 156 -10 30 -36 97 -59 148 -48 112 -56 117 -192 133 -81 9
-115 18 -195 55 -53 24 -109 44 -124 44 -15 0 -42 8 -59 19 -17 10 -56 26 -86
36 -30 10 -74 33 -97 51 -22 19 -73 47 -113 63 -39 15 -76 33 -83 40 -6 6 -20
11 -32 11 -23 0 -146 89 -170 123 -37 52 -65 98 -65 106 0 15 -43 37 -94 50
-26 6 -68 27 -92 45 -24 19 -59 37 -78 40 -18 4 -41 15 -51 26 -23 25 -55 26
-55 2 0 -10 11 -33 25 -52 24 -32 31 -56 40 -130 2 -19 7 -49 11 -66 8 -43
-12 -144 -33 -160 -59 -45 -129 -39 -192 16 -38 33 -48 36 -74 15 -16 -12 -25
-10 -67 11 -26 13 -57 24 -68 24 -11 0 -25 6 -31 14 -6 7 -25 16 -43 20 -30 6
-30 7 -24 48 10 60 45 118 86 140 34 18 39 23 70 69 8 12 26 34 40 48 14 14
34 39 43 54 10 15 29 32 42 37 17 6 28 22 36 52 7 24 18 50 26 59 31 37 22 39
-257 39 l-270 0 0 -2827z m10644 2420 c119 -41 196 -171 196 -330 0 -91 -23
-149 -95 -233 -79 -93 -105 -100 -259 -71 -101 18 -118 19 -152 7 -43 -15 -63
-10 -108 28 -33 27 -27 46 14 46 21 0 33 8 47 30 9 17 32 35 50 41 27 9 93 69
93 84 0 3 -5 14 -12 24 -6 10 -8 26 -4 36 8 21 53 13 72 -13 10 -14 15 -14 25
-5 10 10 10 18 -1 38 -12 23 -12 30 5 58 10 18 27 38 37 45 28 20 22 48 -17
72 -44 27 -104 20 -186 -21 -31 -16 -63 -29 -71 -29 -27 0 -128 -133 -128
-169 0 -20 -51 -61 -78 -61 -10 0 -24 6 -31 13 -8 7 -15 8 -18 2 -2 -5 -14
-39 -26 -74 -27 -79 -53 -96 -44 -30 21 145 51 213 91 207 12 -2 22 -12 24
-23 6 -32 16 -36 50 -20 29 15 31 19 27 56 -6 46 3 61 97 162 69 76 171 134
255 146 62 9 84 6 147 -16z m-535 -783 c16 0 54 -11 84 -25 47 -22 68 -26 135
-24 68 2 83 0 107 -19 28 -22 83 -29 101 -13 5 5 46 24 92 41 102 39 112 34
112 -52 0 -83 -49 -207 -106 -268 -36 -39 -52 -48 -101 -58 -79 -16 -130 -15
-216 4 -83 19 -121 41 -205 119 -64 59 -82 95 -82 168 0 27 4 37 16 37 13 0
15 10 14 48 -4 70 -2 81 11 60 6 -11 22 -18 38 -18z m1019 -447 c9 -41 9 -69
2 -95 -5 -21 -14 -55 -19 -75 -20 -78 -70 -113 -106 -73 -10 11 -24 20 -31 20
-8 0 -39 16 -70 36 -30 19 -68 40 -84 45 -29 11 -45 33 -34 50 3 5 32 9 64 9
55 0 60 2 66 25 5 19 13 25 33 25 29 0 91 34 91 50 0 5 11 10 24 10 13 0 26 7
30 15 11 29 22 15 34 -42z m-3933 -154 c5 -5 -6 -9 -28 -9 -35 0 -45 8 -30 23
8 8 43 -1 58 -14z m5776 -62 c-18 -18 -14 -49 7 -43 9 3 23 2 31 -3 27 -17
-24 -22 -60 -5 -78 35 -82 43 -36 64 36 18 79 8 58 -13z m-5561 -7 c0 -5 -7
-10 -15 -10 -8 0 -15 5 -15 10 0 6 7 10 15 10 8 0 15 -4 15 -10z m-530 -20
c11 -7 1 -10 -35 -10 -36 0 -46 3 -35 10 8 5 24 10 35 10 11 0 27 -5 35 -10z
m-261 -34 c-12 -10 -79 -16 -79 -6 0 5 19 10 42 10 23 0 39 -2 37 -4z m4693
-195 c71 -12 121 -46 111 -75 -10 -31 -5 -67 12 -86 8 -9 41 -24 72 -34 75
-24 158 -66 207 -105 22 -17 50 -34 62 -37 56 -14 93 -165 62 -255 -11 -34
-59 -111 -98 -160 -13 -15 -24 -50 -30 -87 -15 -106 -37 -158 -97 -222 -30
-33 -66 -66 -78 -72 -13 -7 -68 -40 -122 -73 -115 -70 -183 -96 -274 -102 -80
-7 -129 13 -129 52 0 14 8 29 20 35 28 15 25 52 -8 83 -34 33 -62 34 -121 5
-35 -17 -69 -23 -153 -26 -100 -4 -111 -3 -161 21 -29 15 -65 39 -79 54 -62
65 -162 280 -180 385 -33 191 62 383 259 524 77 55 117 69 213 79 59 5 89 15
140 43 100 55 237 75 372 53z m-5382 -377 c0 -53 -23 -112 -50 -131 -13 -9
-22 -31 -26 -64 -4 -27 -11 -52 -15 -55 -5 -3 -9 -16 -9 -29 0 -13 -3 -26 -8
-28 -7 -5 -35 -88 -63 -185 -10 -35 -10 -48 -1 -63 18 -28 7 -39 -33 -32 -28
4 -35 2 -35 -10 0 -27 -22 -31 -41 -9 -12 16 -28 22 -58 22 -22 0 -42 4 -45 9
-3 5 1 29 10 54 13 37 20 46 42 49 25 3 27 7 27 48 0 39 3 45 23 48 13 2 30
-2 38 -9 21 -17 23 -10 14 41 -9 47 0 70 26 70 16 0 19 36 4 45 -5 3 -10 15
-10 26 0 16 6 19 28 17 26 -3 27 -1 26 42 -1 48 7 60 43 60 30 0 61 36 69 79
13 74 44 77 44 5z m3508 -422 c2 -7 -3 -12 -12 -12 -9 0 -16 7 -16 16 0 17 22
14 28 -4z m-1260 -64 c-5 -15 -48 -24 -48 -10 0 14 12 22 33 22 10 0 17 -5 15
-12z m-2678 -62 c0 -8 -7 -17 -16 -20 -23 -9 -24 -8 -24 14 0 13 7 20 20 20
11 0 20 -6 20 -14z m7606 -78 c-30 -41 -56 -102 -56 -133 0 -23 -11 -41 -39
-69 -22 -21 -44 -35 -50 -32 -19 12 -12 52 15 77 44 41 68 81 66 111 -3 33 28
68 59 68 20 0 21 -1 5 -22z m-7338 -54 c13 -9 12 -17 -6 -56 -11 -25 -23 -61
-27 -79 -4 -19 -16 -42 -26 -52 -21 -20 -24 -33 -8 -42 6 -4 16 1 24 11 18 25
33 9 17 -17 -9 -14 -10 -25 -1 -40 8 -15 8 -28 -1 -50 -10 -23 -10 -35 0 -59
15 -37 7 -60 -22 -60 -43 0 -52 -13 -38 -54 13 -39 24 -45 38 -20 12 22 29 11
37 -26 4 -17 8 -30 10 -30 2 0 16 11 31 25 15 14 30 25 34 25 4 0 12 -11 18
-25 6 -14 18 -25 26 -25 7 0 16 -7 20 -15 4 -10 13 -14 29 -10 18 5 31 -2 58
-30 18 -20 46 -42 60 -50 24 -13 29 -13 39 0 21 25 51 18 63 -15 12 -32 27
-40 27 -15 0 8 7 15 15 15 10 0 15 -7 13 -17 -2 -14 4 -18 27 -18 23 0 35 -8
57 -42 23 -34 36 -43 80 -53 28 -7 63 -24 76 -37 13 -13 30 -22 37 -20 6 3 18
1 26 -4 11 -7 10 -9 -5 -9 -15 0 -17 -3 -9 -11 8 -8 17 -8 32 0 33 18 71 3 87
-35 16 -38 23 -40 66 -18 26 13 35 14 62 2 17 -7 56 -11 89 -9 46 2 63 -1 79
-15 17 -17 40 -19 186 -21 120 -1 181 -6 217 -17 28 -9 73 -16 101 -16 47 0
151 -27 201 -52 12 -6 34 -8 50 -4 57 12 136 15 155 5 11 -6 36 -12 56 -13 21
-2 55 -15 76 -29 21 -15 50 -27 63 -27 13 0 36 -9 51 -19 15 -10 72 -44 127
-74 73 -40 122 -77 181 -135 45 -44 91 -83 102 -86 11 -4 27 -18 36 -31 9 -14
23 -25 31 -25 8 0 17 -11 21 -24 3 -13 25 -43 50 -67 24 -24 44 -53 44 -64 0
-12 13 -31 30 -43 17 -13 30 -27 30 -32 0 -5 14 -31 30 -57 17 -26 30 -57 30
-70 0 -25 26 -43 62 -43 13 0 40 -16 61 -35 21 -19 49 -41 61 -47 13 -7 58
-46 101 -85 42 -40 83 -73 92 -73 9 0 67 -51 129 -112 62 -62 121 -121 131
-131 123 -121 205 -212 217 -241 8 -20 27 -48 43 -63 30 -30 63 -85 63 -105 0
-7 18 -40 40 -73 22 -33 40 -64 40 -69 0 -9 50 -120 72 -161 25 -45 90 -244
98 -300 6 -38 27 -97 60 -163 28 -56 57 -132 66 -170 8 -37 22 -98 31 -137 16
-70 18 -91 27 -257 3 -48 10 -96 16 -107 6 -12 10 -53 9 -93 0 -40 2 -125 5
-188 11 -204 10 -493 -2 -585 -17 -132 -35 -353 -34 -410 1 -27 -3 -67 -9 -88
-17 -64 -39 -209 -39 -259 0 -26 -5 -67 -12 -91 -13 -50 -5 -92 18 -101 27
-10 62 21 74 65 9 33 18 43 48 56 20 8 50 13 67 10 44 -7 135 16 203 51 91 47
101 74 156 403 17 102 58 181 91 177 33 -5 68 -126 59 -208 -9 -91 -28 -180
-48 -217 -9 -18 -16 -39 -16 -48 0 -24 -46 -91 -76 -112 -15 -10 -52 -41 -83
-70 -31 -29 -66 -61 -79 -72 -22 -19 -42 -68 -42 -104 0 -78 285 149 311 247
5 23 19 54 30 69 12 16 18 31 15 34 -7 8 35 83 46 83 5 0 14 12 21 28 18 41
89 144 95 137 3 -3 0 -15 -6 -28 -19 -39 -72 -158 -72 -162 0 -3 -27 -50 -60
-105 -33 -55 -66 -116 -74 -135 -8 -19 -31 -55 -50 -81 -19 -25 -40 -62 -47
-82 -54 -164 -267 -419 -404 -483 -64 -29 -67 -30 -92 -14 -14 10 -32 35 -41
56 -12 32 -20 39 -43 39 -38 0 -59 -10 -59 -27 0 -8 -9 -28 -21 -44 -20 -28
-28 -69 -64 -334 -32 -230 -56 -356 -80 -420 -13 -37 -22 -71 -19 -77 11 -17
-5 -56 -26 -61 -16 -4 -20 -13 -20 -50 0 -39 -3 -46 -25 -51 -20 -5 -25 -13
-25 -36 0 -16 -4 -31 -9 -35 -5 -3 -12 -19 -16 -35 -4 -16 -12 -33 -20 -37 -7
-5 -14 -17 -17 -28 -2 -11 -10 -20 -18 -20 -21 0 -41 -42 -34 -70 4 -17 0 -26
-14 -34 -28 -15 -32 -14 -32 7 0 21 -18 42 -37 42 -7 0 -13 -7 -13 -15 0 -9
-9 -15 -25 -15 -22 0 -25 -4 -25 -40 0 -45 -10 -49 -47 -20 -14 11 -36 20 -48
20 -23 0 -55 -37 -55 -64 0 -9 -6 -30 -14 -48 -8 -18 -22 -68 -31 -111 -20
-90 -36 -105 -71 -62 -19 25 -26 27 -60 20 -49 -9 -64 -21 -64 -52 0 -28 -63
-93 -91 -93 -9 0 -22 -6 -28 -13 -6 -8 -23 -12 -39 -9 -25 3 -31 -1 -42 -27
-9 -24 -19 -31 -39 -31 -15 0 -32 -5 -38 -11 -8 -8 -15 -6 -24 9 -12 19 -15
20 -30 6 -12 -11 -27 -13 -53 -9 -39 8 -68 40 -80 89 -7 30 -41 83 -65 102 -8
6 -12 20 -8 33 3 14 1 21 -9 21 -8 0 -14 7 -14 15 0 8 -9 32 -20 52 -11 21
-23 53 -26 73 -3 19 -9 44 -14 55 -5 11 -11 46 -14 79 -5 66 -10 74 -29 57
-12 -9 -18 -6 -31 13 -18 29 -21 52 -6 61 6 4 8 15 5 26 -3 10 1 34 10 53 9
19 15 45 14 58 -2 13 0 29 5 36 4 7 8 30 8 50 0 20 4 45 9 54 10 19 39 13 39
-8 0 -16 26 -19 35 -4 4 6 0 22 -9 35 -9 13 -16 30 -16 38 0 8 -20 33 -45 56
-25 23 -45 49 -45 57 0 17 -40 74 -52 74 -4 0 -8 -16 -8 -35 0 -97 -65 32 -69
137 -1 10 -17 25 -38 34 -21 10 -45 24 -54 31 -9 8 -21 13 -27 11 -6 -2 -18 6
-26 17 -13 17 -15 18 -16 3 0 -20 -57 -52 -63 -34 -2 6 3 16 12 23 14 10 14
13 -1 30 -9 10 -18 26 -19 36 -6 27 -24 22 -27 -8 -5 -39 -42 -33 -85 16 -35
39 -57 44 -57 13 0 -24 -30 -16 -40 11 -5 14 -17 25 -28 25 -21 0 -82 70 -82
94 0 10 -9 16 -25 16 -14 0 -25 5 -25 10 0 6 -7 10 -15 10 -19 0 -55 36 -55
55 0 15 -34 38 -43 29 -3 -3 -13 6 -22 20 -14 20 -21 24 -31 15 -7 -6 -21 -9
-31 -7 -11 2 -24 -7 -35 -24 -24 -38 -53 -38 -43 0 12 48 7 76 -15 94 -29 24
-57 23 -65 -2 -6 -19 -9 -17 -26 17 -22 43 -19 63 11 63 31 0 24 27 -20 72
-49 49 -49 72 0 76 55 4 64 10 50 27 -20 24 -5 41 47 55 26 7 62 20 78 28 35
17 95 79 95 99 0 8 7 25 16 38 9 13 18 50 21 82 l5 58 -54 46 c-56 49 -107 78
-171 99 -22 7 -62 31 -91 55 -101 82 -134 99 -190 99 -41 0 -59 -5 -87 -26
-49 -38 -78 -47 -114 -36 -16 6 -59 12 -95 13 -59 3 -70 0 -123 -31 -32 -19
-70 -34 -83 -34 -29 0 -155 70 -199 110 -16 15 -46 31 -65 35 -19 4 -48 14
-64 22 -59 30 -86 34 -104 13 -9 -11 -32 -23 -52 -26 -41 -8 -73 -29 -166
-106 -57 -49 -74 -58 -107 -58 -21 0 -48 -5 -59 -11 -14 -8 -23 -8 -31 0 -6 6
-21 11 -33 11 -32 0 -43 20 -42 77 0 29 -3 56 -6 61 -3 5 9 22 25 38 17 16 46
52 64 79 18 28 59 77 90 109 49 51 60 58 76 48 14 -9 27 -6 63 14 39 22 48 33
61 77 19 65 19 76 -5 131 -20 47 -71 89 -96 79 -17 -6 -19 28 -4 43 12 12 -17
74 -34 74 -5 0 -3 7 4 15 10 12 10 18 0 30 -7 8 -19 15 -26 15 -8 0 -14 5 -14
10 0 6 -13 10 -30 10 -16 0 -30 -4 -30 -9 0 -16 -61 -41 -100 -41 -63 0 -80
-49 -25 -70 37 -14 31 -37 -20 -68 -25 -15 -44 -31 -42 -37 2 -5 20 -13 39
-18 63 -15 89 -67 35 -67 -12 0 -28 -4 -36 -9 -22 -14 -5 -60 29 -79 17 -9 30
-19 30 -22 0 -3 -16 -14 -36 -25 -40 -21 -54 -48 -47 -87 3 -18 -2 -33 -17
-48 -15 -15 -20 -30 -17 -46 3 -17 -1 -28 -14 -34 -17 -10 -37 -75 -26 -86 3
-3 13 -7 24 -9 10 -2 19 -4 20 -4 1 -1 -3 -17 -8 -36 -8 -26 -6 -42 6 -64 21
-42 19 -78 -10 -136 -29 -59 -31 -82 -9 -114 12 -16 15 -35 11 -65 -9 -60 8
-207 24 -220 26 -21 99 -135 99 -155 0 -47 -34 -97 -81 -118 -20 -8 -28 -21
-32 -50 l-6 -38 -82 -18 c-66 -15 -88 -25 -108 -48 -14 -16 -32 -29 -39 -29
-8 0 -28 -6 -45 -14 -18 -8 -40 -16 -49 -19 -9 -3 -18 -18 -20 -34 -2 -20 -9
-28 -23 -28 -12 0 -20 6 -19 15 1 12 -8 14 -38 12 -43 -5 -45 -8 -22 -34 16
-17 14 -19 -31 -39 -40 -18 -62 -21 -129 -17 -48 3 -82 10 -84 16 -2 7 -23 12
-48 12 -54 0 -64 17 -40 67 9 19 14 44 10 55 -3 12 1 27 11 39 14 15 15 22 5
33 -21 27 -48 28 -80 5 -19 -14 -30 -32 -30 -47 0 -18 -5 -23 -22 -22 -52 5
-68 0 -68 -18 0 -21 -33 -56 -43 -45 -15 15 -7 55 13 60 26 7 25 21 -2 50 -16
17 -33 23 -63 23 -46 0 -64 14 -94 73 -18 36 -18 36 2 50 27 18 16 51 -13 42
-11 -3 -20 -3 -20 2 -1 19 -10 110 -13 128 -4 30 -16 45 -36 45 -10 0 -35 16
-55 36 -29 28 -36 42 -32 59 9 37 -3 55 -38 55 -44 0 -56 11 -61 56 -10 86
-17 110 -38 126 -18 14 -20 19 -9 43 16 36 7 47 -36 43 -40 -3 -52 13 -28 38
9 8 16 30 16 48 0 17 5 37 12 44 9 9 8 12 -4 12 -38 0 -66 -19 -73 -49 -4 -17
-11 -31 -16 -31 -18 0 -22 32 -8 72 11 35 11 44 -4 69 -14 26 -15 33 -2 70 10
26 14 64 11 103 -3 46 0 65 11 78 14 16 13 18 -11 28 -40 15 -54 12 -66 -10
-8 -16 -21 -20 -58 -20 -61 0 -87 19 -116 83 -13 29 -33 61 -45 71 -11 11 -21
25 -21 32 0 7 -18 34 -41 60 -55 63 -61 82 -61 202 -1 101 -8 118 -35 91 -18
-18 -61 20 -74 66 -6 22 -15 56 -21 76 -8 27 -7 42 2 60 13 23 16 141 4 160
-3 6 12 26 35 45 30 26 41 43 41 64 0 15 7 33 15 40 12 10 13 16 4 26 -17 21
7 44 45 44 37 0 65 -23 102 -83 32 -51 62 -76 90 -77 12 0 27 -7 34 -15 7 -8
28 -15 47 -15 29 0 36 5 44 30 12 34 34 39 49 11 7 -15 23 -21 58 -23 41 -3
47 -6 50 -26 3 -22 7 -23 45 -19 23 3 57 9 75 12 31 7 32 6 34 -26 0 -19 2
-40 2 -48 2 -23 25 -25 61 -6 30 17 36 17 71 3 46 -18 61 -14 91 21 l23 26 24
-27 c28 -32 85 -38 106 -13 16 19 49 19 74 0 11 -8 32 -15 47 -15 14 0 32 -7
39 -15 20 -24 44 -18 58 15 9 20 21 30 35 30 22 0 87 39 87 53 0 4 6 7 14 7 7
0 17 8 20 18 3 9 13 28 21 42 11 20 15 21 15 7 0 -22 39 -38 62 -26 9 5 27 9
40 9 13 0 40 12 59 26 51 39 138 94 148 94 4 0 16 9 26 20 10 12 24 19 31 16
6 -2 21 2 32 9 10 8 23 11 27 7 4 -4 26 -7 48 -7 35 0 42 -3 42 -20 0 -16 7
-20 28 -18 21 1 27 -3 27 -18 0 -23 19 -24 75 -4 53 19 52 20 59 -20 5 -25 14
-39 31 -45 27 -10 35 -35 32 -94 -2 -35 1 -40 23 -46 22 -5 25 -12 28 -58 2
-36 -3 -66 -17 -98 -20 -45 -22 -46 -56 -40 -39 8 -47 -7 -17 -31 32 -26 62
-34 83 -22 15 7 24 7 33 0 21 -17 34 7 35 67 0 29 8 66 17 84 9 18 14 42 10
59 -3 19 1 35 14 52 22 27 26 72 9 82 -7 5 -5 12 5 24 8 9 19 28 25 43 5 15
23 35 38 45 15 10 42 33 59 50 17 18 41 33 52 33 12 0 39 7 61 16 47 19 70 60
80 143 4 31 10 62 15 69 4 7 12 43 17 80 11 74 43 132 85 151 31 14 27 36 -7
36 -19 0 -25 6 -27 27 -4 36 24 52 68 37 37 -13 39 -11 75 58 22 43 24 55 15
73 -14 26 -3 43 11 17 7 -11 22 -17 49 -17 29 0 43 -6 57 -24 19 -23 60 -35
137 -39 36 -2 41 -6 57 -43 9 -23 30 -52 47 -65 16 -13 38 -37 48 -54 10 -16
30 -44 44 -61 15 -17 41 -72 59 -122 18 -50 38 -96 45 -101 6 -5 27 -11 46
-14 73 -12 100 -20 100 -27 0 -5 26 -25 57 -44 67 -42 86 -35 55 18 l-21 35
21 7 c30 9 39 -7 41 -68 1 -54 1 -54 32 -54 16 0 39 -3 51 -7 17 -6 27 1 57
38 22 29 38 42 42 34 5 -7 27 -9 70 -4 72 7 159 -15 176 -46 5 -11 19 -19 30
-19 12 0 23 -8 26 -20 4 -16 14 -20 44 -20 29 0 39 -4 39 -16 0 -9 -9 -18 -20
-21 -12 -3 -19 -11 -17 -17 6 -18 39 -19 49 -2 13 23 29 10 22 -17 -4 -19 2
-26 40 -43 30 -14 49 -18 61 -12 10 6 21 5 31 -3 9 -8 32 -10 64 -6 28 3 50 2
50 -2 0 -12 60 -32 71 -25 5 3 9 14 9 24 0 10 6 20 13 23 6 2 68 2 137 0 161
-7 296 9 362 43 28 14 81 56 118 92 110 108 171 137 228 108 39 -20 66 -20 82
-1 7 8 21 15 32 15 10 0 32 15 49 33 27 29 35 32 88 33 52 1 63 5 89 30 45 45
53 66 40 102 -10 25 -9 34 8 57 10 15 24 36 29 45 6 10 15 24 21 31 24 32 21
229 -4 276 -18 33 -15 50 11 49 15 -1 23 5 25 21 5 31 -39 104 -76 128 -19 12
-29 26 -26 36 4 16 -32 57 -42 46 -3 -3 2 -16 11 -30 23 -35 6 -41 -57 -20
-52 17 -54 20 -55 53 -1 19 4 38 10 42 8 5 6 17 -5 42 -13 26 -27 38 -55 46
-21 6 -47 17 -57 25 -13 10 -43 15 -87 15 -37 0 -71 5 -74 10 -3 6 -28 10 -54
10 -26 0 -70 7 -97 15 -27 8 -86 15 -131 15 -50 0 -98 6 -120 15 -21 8 -76 17
-123 19 -47 3 -101 8 -121 11 -32 6 -37 4 -42 -15 -4 -17 -10 -21 -24 -15 -77
33 -143 46 -143 28 0 -4 10 -17 22 -30 29 -31 16 -40 -27 -20 -48 23 -66 21
-121 -8 -26 -14 -53 -25 -60 -25 -7 0 -16 -9 -19 -20 -5 -17 -15 -20 -62 -20
-67 0 -130 -17 -159 -42 -12 -11 -36 -18 -60 -18 -21 0 -57 -9 -79 -19 -22
-11 -67 -25 -100 -32 -33 -7 -65 -16 -71 -21 -7 -5 -23 -4 -37 3 -21 10 -31 9
-51 -4 -58 -38 -98 -57 -122 -57 -21 0 -25 4 -22 23 1 12 -1 23 -5 25 -18 6
-27 1 -27 -17 0 -15 -11 -19 -62 -25 -50 -5 -65 -3 -74 9 -14 19 -34 19 -62
-1 -13 -9 -31 -13 -43 -9 -16 5 -27 0 -44 -21 -18 -23 -31 -28 -73 -30 -28 -1
-61 -9 -74 -17 -13 -8 -57 -18 -98 -22 -41 -3 -85 -13 -96 -20 -12 -8 -43 -15
-70 -17 -38 -2 -51 -8 -58 -24 -9 -20 -11 -20 -38 -5 -27 15 -29 15 -47 -8
-24 -31 -49 -22 -90 32 -35 48 -89 75 -118 58 -14 -7 -21 -3 -34 19 -20 33
-114 80 -159 80 -16 0 -39 -6 -51 -12 -17 -11 -22 -10 -38 10 -14 19 -32 25
-90 32 -78 10 -95 16 -85 31 9 16 -16 39 -42 39 -14 0 -33 6 -44 12 -15 10
-27 10 -50 1 -16 -6 -32 -8 -35 -3 -3 5 -23 11 -44 15 -27 4 -41 13 -44 26 -6
21 -51 27 -63 8 -10 -17 -123 -1 -152 22 -14 10 -30 19 -37 19 -6 0 -20 9 -29
19 -24 27 -107 45 -170 37 -47 -5 -55 -3 -76 19 -13 14 -33 25 -45 25 -24 0
-102 35 -128 58 -15 13 -25 14 -68 4 -34 -8 -56 -9 -69 -2 -10 6 -29 10 -41
10 -12 0 -31 8 -41 17 -14 13 -34 17 -76 15 -102 -3 -171 -14 -183 -28 -7 -9
-31 -13 -69 -13 -46 1 -71 -5 -117 -28 -117 -60 -288 -133 -311 -133 -5 0 -21
-10 -36 -21 -19 -15 -35 -20 -56 -16 -23 5 -30 2 -35 -13 -3 -11 -3 -24 0 -30
3 -5 0 -10 -9 -10 -18 0 -34 62 -17 68 14 5 14 42 0 42 -7 0 -8 7 -3 18 4 9 8
31 9 48 2 40 12 54 35 54 30 0 41 34 43 137 2 89 0 96 -22 114 -13 10 -31 19
-40 19 -15 0 -56 61 -56 83 0 8 -17 21 -43 34 -2 0 2 19 9 42 8 26 31 59 65
93 52 51 68 88 44 103 -11 6 -43 -22 -75 -68 -27 -36 -53 -29 -47 13 2 17 8
30 13 30 11 0 64 51 76 74 7 12 7 28 0 47 -10 25 -6 33 36 86 64 81 76 93 88
93 5 0 8 -4 4 -9 -3 -5 0 -13 6 -17 6 -3 15 0 20 7 13 20 11 29 -6 29 -21 0
-19 16 6 57 15 24 24 31 33 24 7 -6 30 -14 51 -19 l38 -7 -36 -35 c-21 -19
-37 -44 -37 -56 0 -26 -46 -90 -89 -124 -29 -23 -71 -78 -71 -94 0 -14 24 -4
55 23 18 16 37 30 42 32 4 2 25 26 47 52 21 26 59 69 85 95 50 51 117 131 141
167 50 77 120 203 120 217 0 9 4 19 9 23 6 3 33 54 62 113 28 59 55 109 60
110 5 2 9 10 9 18 0 8 8 22 18 32 11 11 33 39 49 63 30 43 92 100 163 149 19
14 44 35 55 47 11 12 55 40 98 62 69 35 111 72 142 121 41 65 52 80 78 96 16
11 52 33 78 51 27 17 59 35 72 38 12 4 33 17 47 30 35 32 84 55 117 55 41 0
133 59 133 86 0 17 8 23 35 28 19 4 35 9 35 13 0 3 -11 18 -25 35 -41 48 -30
103 15 76 18 -11 23 -10 31 5 6 11 22 17 43 17 45 0 48 6 24 46 -15 25 -18 38
-10 46 8 8 6 18 -5 34 -8 14 -13 34 -10 46 4 12 1 28 -5 35 -15 18 -2 43 22
43 23 0 24 3 8 30 -10 16 -10 24 0 41 12 19 10 25 -15 58 -41 51 -44 57 -37
76 6 14 15 16 55 11 43 -6 48 -5 55 16 7 22 7 22 14 3 5 -13 2 -23 -6 -28 -16
-9 -19 -27 -5 -27 12 0 61 44 61 54 0 4 8 18 17 33 l17 26 10 -29 c5 -16 16
-34 24 -40z m1697 -44 c-3 -5 -13 -10 -21 -10 -8 0 -14 5 -14 10 0 6 9 10 21
10 11 0 17 -4 14 -10z m-1505 -59 c0 -21 -13 -41 -26 -41 -17 0 -17 5 -2 30
13 21 28 27 28 11z m1040 -56 c0 -8 0 -18 0 -22 1 -4 -20 -12 -45 -18 -35 -9
-58 -9 -99 0 -49 11 -96 31 -96 39 0 2 39 4 86 4 47 0 88 3 91 6 13 13 63 6
63 -9z m162 -46 c85 -17 168 -42 174 -51 10 -15 -29 -37 -64 -38 -18 0 -64 16
-103 35 -39 19 -82 35 -95 35 -23 0 -31 10 -17 23 9 10 44 9 105 -4z m-2045
-55 l28 -26 -40 7 c-22 3 -60 9 -85 11 -71 8 -91 14 -85 24 3 6 39 10 80 10
65 0 77 -3 102 -26z m1903 -14 c-20 -13 -70 -13 -70 0 0 6 19 10 43 10 31 0
38 -3 27 -10z m462 -6 c36 -22 -54 -35 -94 -13 -17 9 -18 13 -7 20 13 9 83 4
101 -7z m-2302 -24 c0 -5 -7 -10 -15 -10 -8 0 -15 5 -15 10 0 6 7 10 15 10 8
0 15 -4 15 -10z m345 -43 c-12 -6 -23 -3 -41 14 -35 33 -29 39 17 16 34 -17
38 -22 24 -30z m-1279 -1203 c-3 -9 -6 -20 -6 -25 0 -5 -4 -9 -10 -9 -11 0
-14 33 -3 43 12 13 25 7 19 -9z m-158 -176 c0 -85 -39 -194 -82 -230 -28 -23
-43 -22 -56 2 -6 11 -17 20 -25 20 -27 0 -16 39 15 55 17 9 28 20 25 25 -6 10
7 40 33 72 30 37 84 98 88 98 1 0 3 -19 2 -42z m5085 -278 c28 -1 93 -80 66
-80 -16 0 -89 77 -88 93 0 9 2 9 6 0 2 -7 10 -13 16 -13z m2117 -178 c14 -3
53 -27 87 -53 34 -27 68 -46 76 -44 41 16 156 -186 118 -209 -6 -4 1 -26 20
-58 27 -46 30 -56 22 -97 -7 -38 -12 -46 -30 -45 -21 0 -21 -1 -6 -35 25 -58
25 -64 4 -114 -15 -35 -26 -47 -42 -47 -19 0 -21 -4 -16 -34 4 -24 1 -39 -9
-47 -20 -16 -47 9 -81 75 -14 28 -32 63 -40 78 -8 15 -18 30 -24 33 -5 4 -9
14 -9 24 0 10 -12 36 -27 57 -66 95 -84 145 -89 252 -3 45 -9 94 -14 108 -11
28 -13 117 -4 152 5 17 11 21 23 16 9 -3 27 -9 41 -12z m-20 -497 c0 -7 6 -15
13 -18 6 -2 9 -8 5 -12 -11 -12 -38 15 -38 37 0 10 5 16 10 13 6 -3 10 -12 10
-20z m60 -75 c0 -11 -4 -20 -10 -20 -5 0 -10 9 -10 20 0 11 5 20 10 20 6 0 10
-9 10 -20z m30 -45 c0 -8 -4 -15 -10 -15 -5 0 -10 7 -10 15 0 8 5 15 10 15 6
0 10 -7 10 -15z m-29 -120 c9 -20 13 -38 8 -40 -8 -6 -39 45 -39 65 0 21 15 8
31 -25z m-7651 -79 c-13 -13 -35 7 -25 24 5 8 11 8 21 -1 10 -8 12 -15 4 -23z
m8829 -180 c8 -10 8 -16 -3 -25 -10 -9 -16 -8 -26 3 -12 15 -6 36 9 36 5 0 14
-6 20 -14z m-39 -166 c0 -5 -9 -10 -20 -10 -11 0 -20 5 -20 10 0 6 9 10 20 10
11 0 20 -4 20 -10z m-3596 -74 c-4 -9 6 -20 25 -30 36 -19 69 -21 67 -3 -3 29
21 18 51 -24 18 -24 39 -52 48 -61 33 -38 10 -37 -70 1 -33 16 -91 35 -130 42
-100 17 -120 26 -105 44 7 8 22 15 34 15 11 0 30 7 40 15 25 19 47 19 40 1z
m-2441 -233 c-3 -7 -9 -13 -13 -13 -17 0 -20 19 -8 40 12 18 13 18 19 2 3 -9
4 -23 2 -29z m1887 -143 c0 -11 -7 -20 -15 -20 -15 0 -21 21 -8 33 12 13 23 7
23 -13z m-3360 -70 c0 -19 -20 -27 -33 -13 -8 7 11 33 24 33 5 0 9 -9 9 -20z
m3059 -167 c69 -114 116 -151 215 -170 16 -3 31 -14 33 -24 3 -11 9 -19 14
-19 5 0 9 -7 9 -15 0 -8 -2 -15 -3 -15 -10 0 -67 32 -72 41 -4 5 -21 9 -40 9
-25 0 -35 5 -40 20 -7 22 -53 50 -82 50 -10 0 -35 11 -55 25 -21 14 -49 30
-63 35 -64 24 -36 107 37 109 11 1 29 -18 47 -46z m649 -36 c4 -30 -21 -48
-40 -29 -8 8 -8 18 0 38 15 31 36 27 40 -9z m-3348 -37 c0 -11 -7 -20 -15 -20
-18 0 -19 12 -3 28 16 16 18 15 18 -8z m3541 -9 c16 -16 29 -34 29 -39 0 -13
-59 -36 -86 -34 -12 1 -44 -9 -72 -23 -27 -14 -57 -25 -67 -25 -9 0 -24 -4
-34 -10 -12 -6 -32 -5 -57 2 -29 7 -47 7 -71 -2 -32 -11 -73 -6 -73 8 0 14 95
52 128 52 19 0 45 9 59 19 13 11 30 18 37 15 7 -3 33 8 57 24 39 27 64 36 107
41 8 0 27 -12 43 -28z m-251 -2 c0 -5 -7 -9 -15 -9 -15 0 -20 12 -9 23 8 8 24
-1 24 -14z m-2743 -31 c10 -21 10 -33 -1 -64 l-14 -39 -7 50 c-3 28 -9 58 -12
69 -8 27 19 15 34 -16z m2520 -93 c3 -9 3 -18 0 -21 -9 -9 -48 16 -42 27 9 14
35 11 42 -6z m2645 -111 c54 -18 144 -114 154 -163 9 -41 -8 -40 -61 3 -32 27
-67 41 -151 64 -123 32 -139 48 -88 89 34 27 81 30 146 7z m-5712 -9 c0 -12
-42 -45 -57 -45 -14 0 -12 4 7 25 21 22 50 34 50 20z m2735 -13 c0 -18 -20
-15 -23 4 -3 10 1 15 10 12 7 -3 13 -10 13 -16z m65 -22 c0 -5 -7 -10 -15 -10
-8 0 -15 5 -15 10 0 6 7 10 15 10 8 0 15 -4 15 -10z m-2880 -30 c0 -5 -17 -10
-37 -10 -28 0 -34 3 -23 10 20 13 60 13 60 0z m2979 -6 c2 -2 -7 -4 -22 -4
-14 0 -29 5 -32 10 -6 10 42 4 54 -6z m4262 -17 c42 -28 59 -60 59 -113 0 -58
19 -154 37 -187 10 -18 13 -40 8 -65 -5 -30 -1 -43 20 -71 14 -19 25 -42 25
-52 0 -12 6 -15 25 -11 31 5 33 -17 9 -80 -17 -44 -89 -128 -110 -128 -18 0
-24 -25 -24 -106 0 -73 -1 -76 -39 -117 l-40 -42 -20 45 c-11 25 -21 55 -21
67 0 36 -20 77 -48 100 -23 18 -29 19 -43 7 -13 -12 -18 -11 -36 1 -12 8 -24
28 -28 45 -4 16 -11 32 -16 35 -5 4 -9 31 -9 61 0 31 -5 64 -10 75 -11 20 -35
25 -44 10 -8 -12 22 -143 35 -155 5 -6 9 -35 9 -65 1 -66 13 -159 34 -256 13
-58 14 -72 2 -83 -11 -11 -18 -8 -44 23 -39 48 -46 88 -26 142 14 35 14 46 5
56 -10 9 -17 6 -33 -15 -28 -39 -48 -36 -48 7 0 23 -6 37 -18 44 -31 17 -47
130 -33 237 6 49 13 111 15 137 4 49 15 72 23 49 3 -7 15 -25 27 -40 13 -15
25 -35 29 -44 3 -10 11 -18 16 -18 19 0 23 43 11 127 -15 107 -4 122 36 47 16
-31 34 -56 39 -55 14 2 10 156 -5 191 -9 21 -9 34 0 49 6 12 14 20 18 17 12
-7 82 -158 82 -175 0 -17 70 -121 81 -121 19 0 4 74 -30 155 -13 30 -50 156
-57 190 -10 55 30 116 43 65 8 -29 20 -25 28 10 8 36 21 37 66 7z m-8957 -493
c7 -19 -1 -34 -19 -34 -8 0 -16 4 -19 9 -9 14 4 41 19 41 7 0 16 -7 19 -16z
m481 -574 c0 -20 -46 -35 -80 -26 l-28 7 34 19 c40 21 74 21 74 0z m-1105 -10
c0 -6 11 -15 25 -20 14 -5 25 -17 25 -28 0 -11 11 -40 25 -65 13 -26 22 -54
19 -62 -4 -10 3 -18 20 -25 17 -6 24 -14 20 -25 -4 -9 1 -41 11 -71 13 -40 27
-63 56 -86 31 -25 39 -38 39 -65 0 -48 -23 -52 -88 -17 -69 36 -152 137 -177
213 -23 70 -23 175 0 249 5 14 25 16 25 2z m186 -711 c12 -11 39 -27 61 -34
36 -13 38 -16 37 -55 -1 -57 -16 -68 -52 -39 -38 31 -67 76 -75 117 -8 37 -2
40 29 11z m4560 -619 c78 0 103 -32 63 -79 -17 -21 -22 -22 -30 -10 -5 7 -9
22 -9 32 0 9 -5 17 -12 17 -16 0 -48 -30 -48 -46 0 -26 -20 -24 -35 5 -9 19
-11 32 -5 36 6 3 10 16 10 29 0 28 10 40 24 26 5 -5 25 -10 42 -10z m-840 -69
c12 10 18 9 31 -4 14 -14 14 -18 -5 -45 -12 -16 -34 -32 -49 -35 -16 -3 -49
-22 -75 -41 -54 -41 -61 -43 -96 -17 -15 10 -51 24 -80 31 -62 14 -73 31 -45
68 17 22 27 26 54 24 19 -2 40 -9 47 -14 14 -12 62 5 62 22 0 5 8 10 18 10 10
0 27 6 37 14 16 11 23 11 52 -6 27 -17 36 -18 49 -7z m986 -36 c6 -14 15 -25
20 -25 5 0 8 -19 6 -42 -2 -29 -8 -43 -17 -43 -17 0 -56 98 -48 120 9 22 26
18 39 -10z m-2774 -47 c-3 -7 -13 -13 -23 -13 -10 0 -20 6 -22 13 -3 7 5 12
22 12 17 0 25 -5 23 -12z m3102 -139 c0 -5 -7 -9 -15 -9 -15 0 -20 12 -9 23 8
8 24 -1 24 -14z m-654 -327 c11 -6 26 -18 34 -26 7 -9 24 -16 38 -16 14 0 37
-10 50 -22 20 -19 33 -22 80 -20 135 9 127 10 130 -24 2 -21 11 -35 25 -42 22
-10 22 -10 2 -18 -11 -4 -31 -20 -45 -36 -14 -16 -41 -33 -60 -37 -19 -5 -43
-12 -52 -16 -10 -4 -24 1 -38 15 -19 19 -25 20 -51 10 -15 -7 -31 -20 -34 -30
-8 -26 -61 -46 -80 -30 -12 10 -23 9 -55 -4 -47 -19 -83 -20 -111 -5 -17 9
-19 17 -13 55 8 53 -6 58 -48 17 -28 -27 -29 -27 -61 -11 -47 24 -94 22 -113
-6 -12 -20 -21 -23 -58 -19 -53 6 -96 -17 -96 -53 0 -29 -15 -31 -29 -6 -7 13
-6 23 2 32 10 10 7 12 -13 6 -14 -3 -37 -6 -52 -6 -21 0 -29 -6 -34 -24 -4
-18 -15 -27 -37 -32 -54 -12 -133 -8 -163 8 -87 46 -106 57 -117 66 -7 5 -43
15 -82 22 -38 6 -94 23 -123 36 -29 13 -59 24 -66 24 -9 0 -12 7 -9 18 3 12
-4 25 -21 36 -35 23 -33 46 10 79 31 26 38 28 63 17 21 -8 39 -8 74 1 37 9 50
9 62 -1 9 -7 25 -10 41 -6 20 5 33 1 51 -16 l24 -23 18 23 c13 18 29 24 75 28
51 4 62 2 83 -18 l23 -22 29 28 c21 20 35 26 50 21 12 -4 30 0 43 9 30 21 51
20 73 -3 17 -20 17 -20 47 2 34 25 115 32 193 16 39 -8 59 -7 90 4 47 17 219
16 251 -1z m4610 -202 c67 -33 129 -60 137 -60 8 0 26 -9 40 -20 14 -11 61
-32 104 -46 86 -28 114 -47 96 -65 -8 -8 -21 -8 -45 -1 -18 6 -62 12 -98 14
-92 4 -86 -15 25 -74 124 -65 227 -98 286 -91 l46 5 6 -55 c4 -31 3 -67 -3
-83 -9 -23 -14 -26 -41 -20 -79 16 -102 -25 -53 -95 23 -34 83 -69 117 -69 6
0 27 -9 46 -21 l33 -20 -21 -23 c-11 -12 -21 -29 -21 -37 0 -21 107 -89 141
-89 28 0 29 -1 29 -55 0 -48 4 -58 30 -81 16 -15 40 -32 52 -38 17 -9 22 -19
20 -40 -3 -20 4 -36 24 -57 15 -16 33 -29 40 -29 6 0 29 -16 50 -35 l38 -35
-58 0 c-32 0 -70 -7 -87 -16 -29 -14 -34 -14 -74 5 -23 11 -54 23 -68 26 -32
8 -51 30 -66 76 -10 32 -22 41 -95 78 -46 22 -87 41 -91 41 -4 0 -42 30 -83
67 -48 43 -81 82 -91 106 -11 29 -26 44 -62 63 -27 13 -58 24 -69 24 -13 0
-28 13 -41 34 -11 19 -37 47 -57 62 -20 16 -70 60 -109 99 -53 51 -73 77 -73
96 0 19 -9 29 -35 42 -44 21 -125 95 -125 114 0 16 27 13 118 -15 37 -11 55
-13 63 -5 12 12 5 20 -62 63 -33 21 -64 32 -108 36 -65 7 -69 10 -88 63 -14
40 -8 61 19 61 30 0 21 52 -11 60 -38 9 -49 35 -26 60 16 18 26 20 65 15 36
-5 49 -3 59 9 22 26 48 19 177 -44z m-4054 -84 l58 -55 -26 -20 c-30 -23 -40
-26 -49 -12 -3 6 4 15 15 21 17 9 19 14 9 26 -6 8 -18 14 -26 14 -17 0 -84 66
-76 74 16 15 42 2 95 -48z m-104 -13 c60 -34 58 -31 45 -44 -27 -27 -123 17
-123 56 0 22 26 18 78 -12z m-95 -49 c26 -34 1 -42 -47 -14 -40 24 -44 34 -19
48 20 12 40 1 66 -34z m288 -31 c8 -57 7 -103 -1 -108 -11 -7 -13 5 -10 43 1
13 -7 30 -17 38 -16 12 -16 15 -3 24 18 12 30 13 31 3z m-171 -44 c-17 -22
-29 -29 -48 -27 -14 2 -27 8 -29 14 -4 12 53 42 80 43 17 1 17 -1 -3 -30z
m-179 -10 c11 -11 33 -21 48 -21 24 -1 27 -4 23 -29 -4 -27 -2 -29 32 -29 38
0 45 -10 21 -30 -13 -10 -19 -9 -35 5 -11 10 -32 20 -47 21 -26 3 -72 48 -73
72 0 6 -4 12 -10 12 -5 0 -10 5 -10 10 0 17 29 11 51 -11z m529 -21 c0 -19 -2
-20 -10 -8 -13 19 -13 30 0 30 6 0 10 -10 10 -22z m-574 -44 c13 -9 24 -22 24
-28 0 -16 57 -84 81 -96 15 -8 17 -7 13 5 -7 18 17 20 47 5 27 -15 24 -30 -6
-30 -22 0 -25 -4 -25 -37 0 -21 7 -47 15 -57 13 -17 13 -23 1 -41 -8 -12 -16
-32 -18 -46 -1 -13 -10 -25 -19 -27 -13 -2 -16 5 -15 35 1 28 -3 38 -14 38
-12 0 -15 -16 -16 -82 -1 -45 -5 -86 -9 -92 -3 -6 -3 -20 0 -32 8 -24 -19 -59
-47 -59 -10 0 -18 -4 -18 -9 0 -12 78 -91 90 -91 16 0 12 -40 -5 -46 -8 -4
-15 -12 -15 -19 0 -7 7 -18 15 -25 16 -13 21 -55 7 -64 -14 -9 -35 12 -46 45
-14 41 -39 58 -63 43 -26 -16 -28 -53 -4 -85 25 -33 26 -56 6 -83 -15 -20 -15
-20 -15 0 0 11 -11 30 -25 42 -39 34 -62 27 -29 -9 22 -24 10 -161 -13 -152
-9 4 -23 -3 -33 -17 -16 -22 -18 -22 -43 -5 -15 9 -25 21 -22 25 3 5 0 12 -6
16 -6 3 -15 0 -20 -7 -6 -11 -11 -11 -20 -2 -9 9 -9 16 2 29 12 16 12 17 -4
11 -10 -4 -27 -7 -38 -7 -23 0 -25 -23 -4 -40 8 -7 15 -16 15 -21 0 -14 -26
-10 -40 6 -19 23 -32 6 -25 -31 4 -26 3 -34 -9 -34 -18 0 -35 29 -29 48 4 11
-34 102 -42 102 -2 0 -10 -3 -19 -6 -20 -8 -20 -28 0 -59 11 -17 14 -36 10
-60 -8 -43 -17 -48 -45 -28 -17 11 -21 21 -16 40 10 40 -5 45 -35 13 -36 -39
-46 -38 -54 5 -8 41 -23 44 -76 14 -36 -20 -40 -21 -71 -5 -31 16 -33 15 -55
-5 -25 -24 -36 -15 -31 26 1 12 -3 19 -10 18 -16 -4 -16 -1 -1 32 10 22 9 27
-8 39 -26 20 -24 80 7 141 22 44 28 50 53 48 38 -3 75 18 106 58 51 66 102
108 134 111 23 2 31 8 32 23 1 32 15 55 33 55 24 0 41 20 42 49 l0 26 12 -25
c14 -30 26 -40 49 -40 20 0 42 60 33 89 -10 32 13 34 41 4 21 -22 27 -25 34
-13 6 8 10 19 10 23 0 12 42 46 56 47 7 0 14 7 18 15 8 23 31 18 44 -9 10 -23
9 -25 -18 -31 -17 -4 -32 -11 -36 -16 -10 -17 7 -49 26 -49 10 0 22 -4 25 -10
13 -21 35 -8 44 27 8 29 7 40 -4 53 -22 24 -19 87 5 117 11 14 20 35 20 47 1
64 47 59 52 -6 3 -45 9 -49 55 -34 16 5 23 2 28 -14 8 -26 25 -16 25 16 0 26
-65 100 -107 123 -20 10 -23 19 -22 74 1 34 4 52 6 39 2 -12 15 -30 29 -38z
m508 47 c3 -5 -1 -14 -9 -21 -8 -7 -15 -21 -15 -32 0 -22 -19 -20 -34 5 -8 12
-5 21 8 36 20 22 41 27 50 12z m1339 -45 c20 -16 23 -56 4 -56 -16 0 -41 27
-50 53 -8 21 19 23 46 3z m-1573 -47 c0 -11 -4 -17 -10 -14 -5 3 -10 13 -10
21 0 8 5 14 10 14 6 0 10 -9 10 -21z m485 -59 c4 -6 4 -18 1 -27 -6 -14 -9
-14 -26 2 -11 10 -20 22 -20 27 0 12 38 10 45 -2z m956 -43 c-13 -13 -26 -3
-16 12 3 6 11 8 17 5 6 -4 6 -10 -1 -17z m-1471 -39 c34 -35 36 -61 4 -66 -26
-4 -40 13 -47 61 -7 45 4 47 43 5z m4309 -399 c42 -39 4 -65 -42 -29 -15 12
-27 28 -27 36 0 21 43 17 69 -7z m307 -169 c-5 -27 -1 -33 32 -54 57 -36 75
-61 68 -91 -8 -31 -30 -41 -59 -27 -12 6 -31 12 -42 14 -14 3 -19 10 -17 23 8
45 3 68 -23 95 -23 24 -25 31 -16 49 7 13 22 21 38 21 23 0 25 -3 19 -30z
m333 -299 c28 -21 21 -41 -15 -41 -43 0 -105 54 -89 79 6 11 70 -13 104 -38z
m-3671 -108 c13 -40 -4 -66 -39 -61 -33 4 -36 49 -7 113 l22 50 7 -35 c4 -19
12 -49 17 -67z m67 -149 c11 -11 14 -25 10 -38 -12 -38 -13 -60 -5 -118 12
-85 6 -98 -44 -98 -44 0 -75 -14 -63 -27 5 -4 27 -13 50 -18 54 -14 73 -47 58
-102 -15 -52 -14 -101 3 -157 13 -42 13 -53 0 -89 -9 -23 -15 -67 -14 -97 2
-100 -7 -143 -36 -171 -16 -15 -24 -34 -24 -55 0 -30 -4 -34 -39 -44 -49 -13
-69 -51 -52 -103 8 -23 9 -48 3 -75 -6 -23 -7 -43 -5 -46 10 -10 6 -85 -5 -98
-6 -8 -13 -30 -15 -50 -2 -20 -13 -54 -24 -76 -12 -25 -17 -46 -11 -55 5 -10
3 -17 -8 -21 -13 -5 -15 -15 -9 -55 4 -33 2 -59 -8 -83 -10 -24 -12 -40 -5
-52 15 -27 1 -65 -26 -72 -42 -10 -61 -41 -61 -99 0 -29 -6 -59 -13 -68 -8 -9
-11 -21 -7 -26 6 -11 -83 -134 -118 -162 -20 -17 -15 -44 7 -36 6 3 27 -3 45
-12 l33 -18 -32 -36 c-35 -40 -77 -49 -100 -22 -7 9 -15 13 -18 10 -3 -3 3
-12 14 -19 18 -14 18 -16 -14 -55 -42 -52 -41 -65 1 -56 82 17 117 17 123 1 9
-24 -11 -71 -32 -75 -49 -9 -58 -52 -21 -98 32 -38 39 -61 27 -83 -7 -14 -6
-29 7 -54 9 -20 20 -36 24 -36 13 0 49 -43 49 -58 0 -7 11 -28 25 -47 21 -27
25 -40 19 -72 -5 -33 -2 -44 20 -70 14 -17 26 -37 26 -44 -1 -28 -130 -146
-186 -171 -16 -7 -49 -27 -73 -45 -24 -18 -49 -33 -55 -33 -6 0 -45 -19 -86
-43 -41 -23 -113 -58 -160 -76 -47 -18 -107 -42 -135 -53 -27 -11 -111 -36
-185 -54 -74 -19 -166 -43 -205 -54 -110 -30 -283 -70 -495 -114 -41 -9 -129
-27 -195 -41 -232 -48 -800 -86 -1000 -66 -66 7 -160 14 -210 16 -168 8 -310
23 -415 45 -58 12 -139 26 -180 30 -142 17 -245 37 -277 53 -18 10 -45 17 -61
17 -54 0 -141 23 -158 41 -14 16 -15 21 -3 35 12 15 30 57 46 107 3 9 -1 24
-8 33 -19 24 -11 74 18 112 26 34 39 37 86 17 28 -12 21 32 -8 51 -14 9 -25
23 -25 30 0 8 -9 22 -20 31 -28 25 -26 61 5 73 14 5 25 13 25 17 0 14 -42 93
-50 93 -18 0 -40 33 -35 50 3 10 -1 47 -10 81 -16 61 -16 63 5 91 31 42 20 62
-29 54 -29 -4 -44 -2 -55 10 -23 23 -20 31 15 36 22 4 36 -1 50 -15 30 -32 49
-15 49 44 0 45 -4 55 -33 83 -37 34 -67 78 -67 98 -1 7 -14 29 -30 48 -33 38
-38 79 -17 139 16 46 44 54 95 29 52 -27 74 -19 70 24 l-3 33 -105 6 c-58 3
-118 11 -135 17 -16 6 -42 14 -56 17 -31 6 -65 71 -55 107 3 13 0 49 -6 82
-12 56 -12 59 11 77 19 16 33 18 66 14 31 -5 44 -3 54 9 17 20 8 33 -31 41
-26 6 -35 3 -49 -14 -15 -19 -21 -20 -44 -9 -15 7 -36 32 -50 61 -25 48 -25
69 -2 66 38 -5 47 2 47 35 0 18 -8 44 -19 57 -10 13 -24 41 -30 62 -13 39 -30
47 -51 22 -30 -36 -70 -6 -70 52 0 16 -12 43 -29 63 -27 34 -28 37 -19 105 5
39 9 80 10 93 1 26 29 30 48 7 7 -8 21 -15 31 -15 29 0 34 -38 9 -72 l-21 -29
36 -55 c50 -75 71 -71 67 11 -2 33 -7 65 -11 70 -4 6 -8 21 -9 34 0 13 -8 31
-16 40 -9 10 -16 34 -16 53 0 20 -7 41 -15 48 -29 24 -30 77 -1 135 28 59 55
74 92 55 18 -10 27 -10 38 -1 12 10 15 7 21 -19 4 -16 10 -31 13 -31 4 -1 16
-3 27 -5 67 -10 102 -26 131 -58 18 -20 39 -36 46 -36 16 0 68 -64 68 -83 0
-8 -9 -26 -21 -40 l-20 -27 25 -25 c14 -14 26 -37 26 -50 0 -24 32 -51 48 -41
14 9 35 -11 36 -35 1 -21 6 -24 34 -21 18 2 32 -1 32 -7 0 -6 -7 -11 -15 -11
-17 0 -19 -8 -16 -60 2 -26 -9 -55 -38 -105 -23 -38 -41 -75 -41 -82 0 -8 12
-13 28 -13 19 0 40 12 67 40 36 37 40 39 47 21 7 -21 -8 -89 -23 -105 -14 -15
-11 -36 6 -36 34 0 7 -132 -31 -148 -13 -6 -21 -17 -19 -24 3 -7 -5 -18 -17
-23 -16 -7 -24 -20 -26 -41 -3 -29 0 -32 28 -36 35 -5 38 -1 43 54 6 66 56 93
79 43 6 -14 18 -25 27 -26 9 -1 27 -2 40 -2 31 -2 46 -40 24 -62 -13 -14 -29
-15 -89 -10 -81 8 -89 1 -58 -43 11 -16 24 -22 47 -20 47 3 75 -17 83 -57 3
-19 4 -45 1 -56 -7 -27 1 -49 19 -49 8 0 14 10 14 25 0 65 99 90 160 39 17
-15 54 -38 83 -53 47 -23 53 -31 63 -71 9 -36 8 -51 -2 -72 -21 -40 -18 -88 4
-88 27 0 42 20 42 57 0 32 21 53 52 53 15 0 108 -86 108 -100 0 -19 67 -58
117 -69 31 -6 62 -20 77 -36 14 -14 30 -25 36 -25 5 0 10 -7 10 -15 0 -21 10
-19 54 11 37 26 40 26 95 14 31 -7 60 -17 65 -22 18 -15 47 -8 83 19 28 22 44
26 77 24 125 -11 157 1 112 42 -36 34 -33 53 9 61 46 9 49 42 4 59 -26 10 -30
16 -25 38 4 20 -3 34 -28 60 -31 33 -32 34 -13 52 18 18 19 18 23 0 5 -16 13
-19 57 -16 41 2 56 -2 73 -18 17 -16 34 -20 75 -19 57 2 119 -8 119 -19 0 -4
-9 -14 -20 -24 -22 -19 -25 -33 -9 -43 14 -8 79 55 79 78 0 28 87 23 120 -7
46 -43 110 -54 110 -19 0 7 -8 17 -17 23 -27 15 -3 32 34 25 17 -3 36 -16 43
-29 22 -42 148 -39 194 4 25 24 55 28 151 19 53 -5 115 7 115 22 0 5 17 12 38
16 20 4 41 9 47 12 5 3 23 6 40 6 22 1 30 5 29 19 -1 9 4 17 10 17 24 0 35 21
24 46 -8 18 -8 31 0 49 10 21 9 27 -3 31 -26 10 -16 33 20 48 19 8 35 19 35
25 0 6 21 31 48 57 26 26 46 53 44 60 -1 7 6 15 17 19 17 5 48 45 77 100 6 11
28 26 49 33 54 18 68 31 54 48 -6 8 -22 14 -35 14 -28 0 -55 26 -47 45 3 8 29
22 59 31 30 8 54 21 54 27 0 7 -11 29 -25 49 -24 35 -24 36 -5 53 11 10 17 22
14 27 -3 5 4 25 15 44 24 41 21 51 -23 69 -39 16 -89 9 -112 -16 -20 -22 -52
-24 -97 -6 -18 8 -38 12 -46 9 -11 -4 -13 2 -8 26 8 40 -20 62 -78 62 -35 0
-43 5 -68 40 -16 22 -33 40 -38 40 -10 0 -13 33 -3 43 3 3 14 1 25 -6 24 -15
36 -1 21 23 -7 12 -8 20 -2 20 15 0 52 79 45 100 -4 12 2 24 17 34 21 15 23
15 26 1 2 -9 -1 -22 -7 -29 -9 -10 -8 -15 4 -20 44 -17 66 29 36 78 -34 55
-14 76 76 76 23 0 53 5 67 11 32 15 56 -2 56 -40 0 -17 10 -35 31 -52 29 -23
30 -28 19 -50 -7 -13 -19 -28 -26 -32 -8 -4 -14 -19 -14 -33 0 -16 -8 -27 -23
-33 -26 -10 -42 -27 -51 -56 -9 -31 78 -95 127 -95 40 0 63 26 54 60 -3 11 3
26 14 36 10 9 19 25 19 35 0 10 10 30 23 46 32 39 25 63 -19 63 -40 0 -47 24
-10 34 24 6 34 25 55 102 14 51 42 77 113 104 62 23 108 71 108 113 0 20 12
33 51 57 29 17 49 26 47 18 -4 -9 6 -14 33 -15 37 -2 39 -1 49 36 8 32 17 42
53 57 23 10 50 19 60 20 10 1 23 9 30 18 8 11 30 18 62 20 54 3 57 9 40 79
-10 37 10 60 46 52 32 -7 83 16 99 44 16 32 12 65 -20 138 l-29 68 25 23 c28
24 54 28 86 11 18 -10 24 -8 41 15 21 30 57 34 82 10z m-300 -113 c7 -12 -12
-24 -25 -16 -11 7 -4 25 10 25 5 0 11 -4 15 -9z m-8550 -336 c14 -17 29 -53
39 -99 9 -40 23 -82 31 -92 25 -32 18 -51 -20 -58 -43 -8 -76 12 -114 67 -88
133 -97 159 -51 165 13 2 35 13 49 23 31 25 37 24 66 -6z m-295 -162 c14 -9
70 -58 125 -108 55 -50 127 -106 160 -124 172 -94 191 -102 250 -108 37 -4 76
-15 103 -31 l43 -24 -5 -51 c-4 -46 -9 -56 -49 -92 -24 -22 -55 -47 -68 -56
l-24 -17 20 -22 c19 -21 19 -22 0 -36 -34 -25 -212 -22 -310 5 -70 20 -180 78
-212 113 -11 12 -30 39 -40 58 -11 19 -36 46 -56 59 -56 37 -43 81 30 106 47
16 55 47 21 75 -13 11 -29 19 -35 20 -7 0 -13 4 -13 9 0 5 -11 23 -25 39 -22
26 -24 36 -18 77 6 49 48 125 68 125 6 0 22 -8 35 -17z m4395 -263 c0 -7 -6
-15 -12 -17 -8 -3 -13 4 -13 17 0 13 5 20 13 18 6 -3 12 -11 12 -18z m3233
-137 c-3 -17 -71 -43 -87 -34 -14 9 -1 24 39 42 38 18 53 16 48 -8z m-7516
-448 c84 -18 128 -51 128 -96 0 -24 -6 -29 -49 -44 -26 -8 -76 -20 -110 -26
-59 -9 -63 -8 -81 13 -19 24 -19 43 2 126 6 23 16 42 24 42 7 0 46 -7 86 -15z
m4333 -155 c11 -18 -5 -31 -26 -20 -11 6 -17 15 -14 21 8 12 32 12 40 -1z
m8329 -179 c18 -32 18 -32 -3 -55 -19 -20 -20 -27 -10 -52 6 -16 11 -54 12
-84 1 -44 -4 -63 -26 -97 -15 -24 -32 -43 -38 -43 -6 0 -30 20 -54 45 -44 45
-44 45 -30 80 8 19 15 45 15 59 0 13 11 38 25 54 22 26 24 34 14 56 -13 29 -1
52 36 66 28 12 37 8 59 -29z m-7688 -45 c15 -11 16 -17 7 -27 -16 -16 -43 -4
-43 21 0 24 9 25 36 6z m332 -203 c-10 -2 -28 -2 -40 0 -13 2 -5 4 17 4 22 1
32 -1 23 -4z m7407 -120 c2 -21 11 -53 20 -71 28 -54 24 -118 -10 -187 -22
-43 -36 -60 -50 -60 -18 0 -20 6 -19 60 0 41 -4 63 -14 71 -10 7 -16 37 -20
88 l-5 77 29 -3 c26 -3 29 0 32 27 7 70 32 69 37 -2z m153 -73 c5 -30 11 -59
12 -65 7 -23 -13 -63 -37 -74 -14 -7 -28 -9 -31 -6 -3 3 0 28 6 56 7 28 12 72
12 98 0 84 24 78 38 -9z m-6606 -187 c-16 -26 -32 -28 -79 -11 -57 21 -42 38
31 36 63 -3 63 -3 48 -25z m-1654 -74 c-2 -6 -8 -10 -13 -10 -5 0 -11 4 -13
10 -2 6 4 11 13 11 9 0 15 -5 13 -11z m-558 -169 c0 -5 -7 -10 -15 -10 -8 0
-15 5 -15 10 0 6 7 10 15 10 8 0 15 -4 15 -10z m8628 -6 c-3 -18 -54 -51 -63
-42 -4 3 1 18 10 32 19 29 59 36 53 10z m-88 -107 c15 -7 27 -24 31 -43 9 -45
17 -54 48 -54 20 0 35 -9 52 -32 13 -17 38 -49 56 -72 43 -54 31 -70 -48 -64
-50 4 -69 12 -143 61 -83 55 -109 88 -87 110 6 6 11 30 11 53 0 28 7 51 22 70
22 27 22 27 28 6 3 -13 16 -28 30 -35z m-8314 -256 c6 -61 16 -117 22 -123 9
-9 18 -8 38 1 15 6 30 8 34 4 4 -4 13 -55 19 -113 6 -57 16 -109 21 -114 6 -6
10 -34 10 -62 0 -63 -17 -74 -77 -49 -21 9 -66 26 -101 36 -68 22 -127 67
-162 125 l-21 34 31 37 c33 39 60 102 60 140 0 13 11 53 25 90 26 69 60 116
79 110 6 -2 16 -54 22 -116z m654 -1132 c0 -24 -23 -21 -28 4 -2 10 3 17 12
17 10 0 16 -9 16 -21z m638 -45 c5 -9 7 -25 5 -35 -3 -11 0 -25 6 -33 9 -11 9
-16 1 -21 -12 -7 -70 47 -70 65 0 38 41 55 58 24z m-536 -68 c15 -3 30 -15 33
-26 5 -15 15 -20 45 -20 51 0 88 -18 92 -44 3 -19 9 -21 53 -18 55 3 105 -13
105 -34 0 -34 -99 -45 -128 -14 -9 10 -33 20 -52 21 -19 2 -51 13 -70 25 -26
15 -40 19 -55 12 -49 -22 -105 36 -105 107 0 25 1 25 28 12 15 -8 39 -17 54
-21z m652 -38 c5 -15 7 -31 3 -34 -12 -12 -57 15 -57 34 0 42 39 41 54 0z
m-226 -90 c7 -7 12 -21 12 -31 0 -17 -5 -19 -37 -14 -49 8 -64 24 -39 43 24
17 48 18 64 2z m-268 -83 c81 -21 248 -45 265 -38 15 5 30 -31 20 -48 -4 -6
-14 -8 -22 -5 -8 3 -20 3 -26 -1 -7 -5 -30 -9 -52 -10 -22 -1 -58 -3 -80 -6
-22 -2 -55 2 -74 10 -18 7 -52 13 -75 13 -23 0 -46 4 -51 9 -6 5 -26 13 -45
18 -35 9 -68 52 -55 73 8 13 118 5 195 -15z m70 -185 c12 -8 11 -10 -7 -10
-12 0 -25 5 -28 10 -8 13 15 13 35 0z m-4252 -125 c12 -14 29 -25 38 -25 14 0
15 -7 10 -40 -6 -37 -4 -41 21 -51 15 -5 44 -7 64 -4 33 6 39 3 68 -32 32 -38
39 -67 21 -78 -6 -4 -8 -15 -5 -25 4 -13 -6 -27 -35 -50 -34 -27 -40 -37 -40
-70 0 -22 -4 -49 -9 -62 -5 -13 -12 -35 -15 -49 -4 -18 -14 -29 -30 -33 -14
-3 -38 -19 -54 -36 -17 -16 -38 -30 -46 -30 -9 0 -21 -11 -26 -25 -13 -33 -50
-46 -127 -44 -52 2 -65 -1 -80 -18 -20 -23 -156 -69 -172 -58 -21 12 -11 38
29 75 59 54 110 158 110 224 0 28 -4 56 -9 62 -5 5 -11 55 -15 110 -5 92 -4
104 14 127 11 14 20 30 20 36 0 6 20 11 48 11 42 0 150 35 170 54 4 4 -1 12
-11 18 -18 9 -18 10 0 24 26 19 36 17 61 -11z m9040 -228 c18 -21 3 -54 -75
-170 -81 -121 -123 -175 -168 -221 -17 -17 -52 -61 -79 -98 -26 -38 -51 -68
-55 -68 -5 0 -28 -28 -52 -62 -41 -58 -107 -133 -233 -268 -29 -30 -69 -76
-89 -101 -20 -26 -76 -86 -125 -133 -71 -69 -90 -94 -100 -131 -19 -73 -25
-70 113 -71 104 -2 131 1 162 17 20 10 46 16 57 13 15 -3 29 3 44 21 27 31 47
28 47 -6 0 -18 -6 -25 -23 -27 -13 -2 -40 -15 -60 -29 -27 -18 -45 -23 -66
-19 -22 5 -36 -1 -63 -24 -18 -17 -39 -30 -46 -30 -7 0 -51 4 -98 9 -76 8 -89
13 -119 41 -23 22 -40 30 -54 26 -79 -20 -76 -20 -76 10 0 16 6 39 13 51 6 12
29 51 50 88 20 36 37 72 37 79 0 8 7 20 16 27 17 14 36 40 105 147 23 34 45
62 50 62 5 0 40 30 77 68 38 37 84 81 103 99 19 18 43 41 54 53 11 11 54 49
95 83 60 51 78 72 90 109 8 26 27 58 43 72 33 30 34 51 5 70 -46 28 -62 28
-80 -4 -15 -26 -23 -30 -58 -30 -35 0 -40 3 -40 24 0 29 15 41 58 51 25 5 32
12 32 30 0 12 6 28 14 34 7 6 11 22 9 35 -11 56 46 88 89 49 11 -9 42 -20 71
-24 29 -3 66 -10 82 -13 37 -9 89 22 122 74 25 39 25 39 68 74 35 29 39 30 53
13z m3099 -489 c31 -60 11 -123 -48 -154 -30 -15 -32 -15 -55 7 -13 12 -24 32
-24 44 0 15 -10 26 -32 36 -24 10 -34 22 -36 42 -4 33 19 45 53 27 21 -11 28
-10 57 8 46 30 65 27 85 -10z m-12019 -374 c27 -18 28 -54 4 -84 -15 -18 -22
-21 -38 -12 -11 6 -26 21 -33 35 -11 21 -11 28 4 51 20 30 32 32 63 10z
m11672 -79 c7 -9 10 -18 6 -22 -8 -9 -56 14 -56 27 0 15 36 12 50 -5z m-1920
-22 c0 -10 -9 -53 -20 -97 -23 -90 -26 -162 -7 -169 16 -6 57 10 57 23 0 6 19
31 41 55 31 34 55 49 95 61 55 16 93 12 96 -9 1 -7 2 -25 2 -42 l1 -30 70 -3
c86 -4 151 13 172 44 23 35 69 44 156 29 76 -13 101 -23 150 -59 35 -26 34
-45 -5 -78 -31 -25 -32 -27 -15 -45 33 -37 12 -68 -23 -33 -11 11 -24 20 -30
20 -18 0 -78 -60 -110 -110 -23 -36 -42 -53 -73 -65 -26 -10 -49 -27 -60 -46
-17 -30 -17 -31 3 -36 26 -7 26 -37 -2 -50 -21 -9 -35 -48 -58 -157 -10 -48
-54 -136 -68 -136 -11 0 -106 -93 -117 -115 -15 -29 -61 -32 -70 -5 -5 17 -13
21 -38 18 -28 -3 -32 0 -29 20 2 16 -4 25 -21 31 -17 7 -26 20 -31 44 -8 45
-28 61 -67 53 -19 -4 -42 0 -61 10 -21 11 -44 14 -74 10 -24 -3 -64 -9 -89
-12 -24 -3 -49 -12 -56 -20 -6 -8 -26 -14 -44 -14 -18 0 -38 -7 -45 -16 -8 -8
-25 -14 -39 -12 -23 3 -26 8 -26 41 0 41 -25 70 -50 60 -8 -2 -44 7 -80 22
-52 21 -81 26 -133 24 -37 -1 -132 3 -211 9 -129 10 -147 10 -172 -5 -25 -15
-30 -15 -46 -2 -14 12 -48 16 -141 17 -94 1 -128 6 -147 18 -33 22 -31 38 6
66 17 13 54 46 83 74 28 29 67 59 86 68 19 9 46 22 60 30 14 7 39 20 55 27 17
8 36 29 44 46 9 20 24 34 40 38 35 8 104 57 171 120 100 95 224 175 272 175
22 0 40 10 101 53 31 22 47 15 47 -18 0 -19 -10 -30 -40 -45 -37 -19 -40 -23
-40 -64 0 -60 -24 -112 -61 -131 -27 -15 -30 -20 -27 -58 2 -34 7 -43 25 -45
26 -4 118 41 126 62 3 8 24 24 46 35 22 12 51 36 65 54 14 18 37 40 52 47 14
8 39 33 55 57 22 32 42 46 85 63 41 15 69 35 101 70 48 53 63 61 63 33z
m-1470 -773 c0 -5 -7 -10 -15 -10 -8 0 -15 5 -15 10 0 6 7 10 15 10 8 0 15 -4
15 -10z m-1078 -232 c2 -16 19 -30 61 -50 31 -15 57 -30 57 -33 0 -18 -23 -45
-60 -70 -41 -28 -41 -29 -72 -10 -31 18 -31 18 -50 -6 -10 -13 -21 -37 -25
-52 -3 -16 -15 -32 -27 -36 -36 -14 -176 -23 -176 -12 0 31 137 182 230 255
54 42 58 43 62 14z m2712 -91 c25 -19 10 -47 -25 -47 -26 0 -29 4 -29 30 0 33
22 40 54 17z m-5017 -24 c11 -16 23 -44 27 -64 8 -45 40 -75 87 -84 98 -18
127 -74 57 -107 -33 -16 -85 -78 -101 -120 -12 -34 -80 -119 -106 -133 -40
-20 -230 -19 -238 2 -4 9 -1 24 6 34 6 11 22 49 36 86 14 36 30 72 36 80 6 7
8 24 5 39 -6 23 0 34 36 71 23 23 50 43 60 43 14 0 17 5 12 24 -3 14 -1 48 5
77 18 84 42 100 78 52z m-352 -295 c-4 -18 -17 -49 -30 -68 -13 -19 -29 -47
-35 -61 -12 -27 -94 -74 -111 -64 -19 12 -7 40 39 90 26 28 63 70 83 93 44 52
63 55 54 10z m2374 -27 c11 -7 3 -12 -30 -21 -48 -12 -113 -33 -143 -45 -27
-12 -16 14 16 38 41 30 128 46 157 28z"/>
<path d="M4680 15870 c-8 -5 -11 -12 -7 -16 4 -4 15 0 24 9 18 18 8 23 -17 7z"/>
<path d="M9100 14016 c0 -11 70 -46 91 -46 24 1 24 1 -6 25 -25 21 -85 35 -85
21z"/>
<path d="M9675 13480 c-7 -12 2 -30 16 -30 12 0 12 27 0 35 -5 3 -12 1 -16 -5z"/>
<path d="M5495 12689 c-4 -6 -5 -13 -2 -16 7 -7 27 6 27 18 0 12 -17 12 -25
-2z"/>
<path d="M5515 12040 c-4 -6 7 -10 25 -10 18 0 29 4 25 10 -3 6 -15 10 -25 10
-10 0 -22 -4 -25 -10z"/>
<path d="M4316 10973 c-3 -4 -6 -19 -6 -35 0 -39 34 -35 38 3 3 25 -18 46 -32
32z"/>
<path d="M10070 10918 c-1 -24 -7 -61 -16 -83 -28 -78 4 -265 44 -250 8 3 20
5 27 5 15 0 45 27 45 40 0 5 -11 21 -25 36 -36 39 -31 84 10 102 18 9 42 35
62 68 l32 55 -22 9 c-12 5 -41 14 -63 20 -23 5 -47 17 -54 25 -24 29 -40 17
-40 -27z"/>
<path d="M4741 10786 c-9 -10 -9 -16 -1 -21 17 -10 37 12 24 25 -8 8 -15 6
-23 -4z"/>
<path d="M9122 9956 c1 -10 8 -17 13 -17 15 1 12 24 -3 29 -9 3 -13 -2 -10
-12z"/>
<path d="M8517 9553 c-7 -6 15 -47 39 -70 17 -17 34 -16 34 2 0 8 -3 15 -8 15
-4 0 -13 14 -20 30 -13 29 -31 38 -45 23z"/>
<path d="M9532 9278 c2 -12 10 -23 18 -23 22 0 19 39 -3 43 -15 3 -18 -1 -15
-20z"/>
<path d="M9210 8945 c0 -16 9 -19 34 -9 20 8 11 24 -15 24 -10 0 -19 -7 -19
-15z"/>
<path d="M11495 14683 c4 -10 10 -31 14 -47 4 -16 13 -32 20 -34 11 -4 13 4 8
33 -6 38 -22 65 -39 65 -6 0 -7 -8 -3 -17z"/>
<path d="M7762 9463 c-15 -6 -6 -23 14 -23 8 0 14 7 14 15 0 15 -6 17 -28 8z"/>
<path d="M12356 8872 c-15 -18 -15 -20 1 -34 27 -24 90 -38 120 -27 31 11 26
27 -17 57 -40 27 -81 28 -104 4z"/>
<path d="M7366 8343 c-4 -9 0 -23 8 -31 12 -12 15 -11 21 7 11 35 -16 58 -29
24z"/>
<path d="M4624 6824 c3 -8 6 -18 6 -20 0 -2 5 -4 10 -4 16 0 11 27 -6 34 -12
5 -15 2 -10 -10z"/>
<path d="M7917 6613 c-12 -11 -8 -21 12 -28 24 -7 51 4 51 21 0 14 -51 20 -63
7z"/>
<path d="M7997 6523 c-13 -12 -7 -23 13 -23 11 0 20 7 20 15 0 15 -21 21 -33
8z"/>
<path d="M5282 5497 c-6 -6 -13 -24 -17 -39 -7 -26 -3 -29 40 -48 26 -11 53
-20 61 -20 19 0 18 36 -1 43 -8 4 -21 22 -29 42 -15 36 -36 45 -54 22z"/>
<path d="M6964 5442 c18 -35 48 -41 54 -9 3 12 -3 17 -20 17 -13 0 -30 6 -37
13 -8 7 -7 -1 3 -21z"/>
<path d="M6640 5439 c-7 -11 -10 -23 -7 -25 6 -6 37 25 37 37 0 17 -19 9 -30
-12z"/>
<path d="M6680 5396 c0 -20 26 -27 56 -16 34 13 21 30 -22 30 -22 0 -34 -5
-34 -14z"/>
<path d="M5918 5153 c-26 -6 -22 -14 17 -46 24 -19 35 -36 35 -55 0 -17 13
-39 35 -62 35 -36 35 -37 15 -55 -20 -18 -20 -18 10 -52 19 -21 30 -45 30 -63
0 -19 6 -31 18 -34 9 -3 22 -16 27 -28 10 -22 19 -26 124 -50 30 -7 56 -18 58
-25 2 -6 -14 -19 -36 -29 -69 -30 -42 -63 47 -58 l53 3 -6 -32 c-6 -31 -4 -33
67 -69 59 -30 87 -38 148 -42 41 -3 76 -5 78 -5 1 -1 2 -14 2 -30 0 -36 22
-57 39 -37 10 11 17 11 48 -5 59 -30 119 -22 129 17 9 37 -9 51 -61 47 -47 -5
-60 8 -26 27 28 14 47 13 65 -6 9 -9 24 -17 34 -18 9 -2 18 -13 20 -24 2 -12
10 -22 18 -22 17 0 19 26 3 36 -8 4 -2 12 15 21 14 7 26 18 26 23 0 21 54 70
83 75 51 10 82 39 82 77 1 18 3 40 6 48 2 8 -6 19 -19 25 -19 8 -22 15 -18 38
4 20 0 32 -15 45 -11 9 -33 29 -49 45 -15 15 -33 27 -40 27 -16 0 -118 -49
-125 -61 -9 -14 -41 -11 -55 6 -6 8 -37 26 -68 40 -61 28 -94 53 -87 66 3 4
-3 10 -14 14 -10 3 -35 21 -55 40 -32 30 -40 33 -63 24 -23 -8 -30 -7 -43 10
-8 11 -30 24 -47 27 -18 4 -33 9 -33 13 0 3 -11 19 -25 34 -33 35 -85 37 -108
5 -15 -23 -15 -23 -30 -3 -13 16 -18 18 -28 8 -7 -7 -27 -13 -44 -13 -26 0
-34 6 -46 33 -13 29 -17 32 -54 29 -47 -3 -76 5 -58 16 13 8 -51 12 -79 5z
m482 -553 c0 -13 -37 -13 -45 0 -3 6 -3 15 0 20 7 12 45 -5 45 -20z"/>
<path d="M6440 5136 c0 -16 5 -26 15 -26 8 0 15 6 15 14 0 7 -7 19 -15 26 -13
11 -15 8 -15 -14z"/>
<path d="M7182 4769 c3 -24 33 -48 44 -36 4 4 2 18 -4 32 -14 31 -45 34 -40 4z"/>
<path d="M7173 4613 c-25 -10 -12 -23 21 -23 41 0 56 15 23 24 -25 6 -27 6
-44 -1z"/>
<path d="M4575 4588 c-19 -56 -4 -168 22 -168 7 0 13 3 13 8 0 4 2 39 4 77 3
66 -5 95 -26 95 -5 0 -11 -6 -13 -12z"/>
<path d="M9936 2532 c-3 -3 -6 -12 -6 -19 0 -17 42 -14 47 3 4 12 -32 26 -41
16z"/>
<path d="M6157 19896 c-7 -18 1 -26 25 -26 16 0 16 3 6 20 -15 24 -24 25 -31
6z"/>
<path d="M9674 18746 c-8 -22 2 -46 21 -46 19 0 20 34 0 50 -12 10 -16 9 -21
-4z"/>
<path d="M9385 17490 c3 -5 13 -10 21 -10 8 0 14 5 14 10 0 6 -9 10 -21 10
-11 0 -17 -4 -14 -10z"/>
<path d="M12810 16855 c-15 -18 -21 -143 -8 -167 10 -21 41 -23 57 -4 6 7 9
26 6 42 -5 25 -7 48 -14 132 -1 17 -26 15 -41 -3z"/>
<path d="M13420 16553 c-29 -49 -70 -109 -92 -136 -53 -63 -48 -80 25 -91 31
-4 77 -5 102 -2 l45 7 0 155 c0 122 -3 154 -13 154 -8 0 -38 -39 -67 -87z"/>
<path d="M12993 16583 c-13 -3 -23 -12 -23 -21 1 -53 53 -57 58 -4 2 17 0 31
-5 31 -4 -1 -18 -4 -30 -6z"/>
<path d="M2180 14161 c-17 -33 -12 -46 10 -26 21 19 27 45 10 45 -5 0 -14 -9
-20 -19z"/>
<path d="M414 13737 c-12 -6 -35 -20 -52 -29 -26 -15 -85 -32 -192 -54 -31 -7
-32 -23 -7 -105 13 -40 24 -59 42 -67 13 -6 31 -23 41 -37 21 -33 29 -32 65
10 17 19 40 35 50 35 11 0 36 7 56 15 21 9 40 12 47 6 11 -8 88 -22 152 -26
17 -2 41 -6 54 -10 21 -7 22 -5 15 27 -4 18 -11 38 -15 43 -4 6 -10 22 -14 38
-3 15 -11 27 -16 27 -5 0 -28 27 -50 60 -22 33 -49 64 -60 70 -26 14 -90 12
-116 -3z"/>
</g>
</svg>
